<?xml version="1.0" encoding="utf-8" standalone="no"?>
<!DOCTYPE svg PUBLIC "-//W3C//DTD SVG 1.1//EN"
  "http://www.w3.org/Graphics/SVG/1.1/DTD/svg11.dtd">
<!-- Created with matplotlib (https://matplotlib.org/) -->
<svg height="288pt" version="1.1" viewBox="0 0 576 288" width="576pt" xmlns="http://www.w3.org/2000/svg" xmlns:xlink="http://www.w3.org/1999/xlink">
 <defs>
  <style type="text/css">
*{stroke-linecap:butt;stroke-linejoin:round;}
  </style>
 </defs>
 <g id="figure_1">
  <g id="patch_1">
   <path d="M 0 288 
L 576 288 
L 576 0 
L 0 0 
z
" style="fill:#ffffff;"/>
  </g>
  <g id="axes_1">
   <g id="patch_2">
    <path d="M 72 256.32 
L 274.909091 256.32 
L 274.909091 34.56 
L 72 34.56 
z
" style="fill:#ffffff;"/>
   </g>
   <g id="matplotlib.axis_1">
    <g id="xtick_1">
     <g id="line2d_1">
      <defs>
       <path d="M 0 0 
L 0 3.5 
" id="m6baa402ad0" style="stroke:#000000;stroke-width:0.8;"/>
      </defs>
      <g>
       <use style="stroke:#000000;stroke-width:0.8;" x="80.890775" xlink:href="#m6baa402ad0" y="256.32"/>
      </g>
     </g>
     <g id="text_1">
      <!-- 0 -->
      <defs>
       <path d="M 31.78125 66.40625 
Q 24.171875 66.40625 20.328125 58.90625 
Q 16.5 51.421875 16.5 36.375 
Q 16.5 21.390625 20.328125 13.890625 
Q 24.171875 6.390625 31.78125 6.390625 
Q 39.453125 6.390625 43.28125 13.890625 
Q 47.125 21.390625 47.125 36.375 
Q 47.125 51.421875 43.28125 58.90625 
Q 39.453125 66.40625 31.78125 66.40625 
z
M 31.78125 74.21875 
Q 44.046875 74.21875 50.515625 64.515625 
Q 56.984375 54.828125 56.984375 36.375 
Q 56.984375 17.96875 50.515625 8.265625 
Q 44.046875 -1.421875 31.78125 -1.421875 
Q 19.53125 -1.421875 13.0625 8.265625 
Q 6.59375 17.96875 6.59375 36.375 
Q 6.59375 54.828125 13.0625 64.515625 
Q 19.53125 74.21875 31.78125 74.21875 
z
" id="DejaVuSans-48"/>
      </defs>
      <g transform="translate(77.709525 270.918437)scale(0.1 -0.1)">
       <use xlink:href="#DejaVuSans-48"/>
      </g>
     </g>
    </g>
    <g id="xtick_2">
     <g id="line2d_2">
      <g>
       <use style="stroke:#000000;stroke-width:0.8;" x="147.36386" xlink:href="#m6baa402ad0" y="256.32"/>
      </g>
     </g>
     <g id="text_2">
      <!-- 200 -->
      <defs>
       <path d="M 19.1875 8.296875 
L 53.609375 8.296875 
L 53.609375 0 
L 7.328125 0 
L 7.328125 8.296875 
Q 12.9375 14.109375 22.625 23.890625 
Q 32.328125 33.6875 34.8125 36.53125 
Q 39.546875 41.84375 41.421875 45.53125 
Q 43.3125 49.21875 43.3125 52.78125 
Q 43.3125 58.59375 39.234375 62.25 
Q 35.15625 65.921875 28.609375 65.921875 
Q 23.96875 65.921875 18.8125 64.3125 
Q 13.671875 62.703125 7.8125 59.421875 
L 7.8125 69.390625 
Q 13.765625 71.78125 18.9375 73 
Q 24.125 74.21875 28.421875 74.21875 
Q 39.75 74.21875 46.484375 68.546875 
Q 53.21875 62.890625 53.21875 53.421875 
Q 53.21875 48.921875 51.53125 44.890625 
Q 49.859375 40.875 45.40625 35.40625 
Q 44.1875 33.984375 37.640625 27.21875 
Q 31.109375 20.453125 19.1875 8.296875 
z
" id="DejaVuSans-50"/>
      </defs>
      <g transform="translate(137.82011 270.918437)scale(0.1 -0.1)">
       <use xlink:href="#DejaVuSans-50"/>
       <use x="63.623047" xlink:href="#DejaVuSans-48"/>
       <use x="127.246094" xlink:href="#DejaVuSans-48"/>
      </g>
     </g>
    </g>
    <g id="xtick_3">
     <g id="line2d_3">
      <g>
       <use style="stroke:#000000;stroke-width:0.8;" x="213.836944" xlink:href="#m6baa402ad0" y="256.32"/>
      </g>
     </g>
     <g id="text_3">
      <!-- 400 -->
      <defs>
       <path d="M 37.796875 64.3125 
L 12.890625 25.390625 
L 37.796875 25.390625 
z
M 35.203125 72.90625 
L 47.609375 72.90625 
L 47.609375 25.390625 
L 58.015625 25.390625 
L 58.015625 17.1875 
L 47.609375 17.1875 
L 47.609375 0 
L 37.796875 0 
L 37.796875 17.1875 
L 4.890625 17.1875 
L 4.890625 26.703125 
z
" id="DejaVuSans-52"/>
      </defs>
      <g transform="translate(204.293194 270.918437)scale(0.1 -0.1)">
       <use xlink:href="#DejaVuSans-52"/>
       <use x="63.623047" xlink:href="#DejaVuSans-48"/>
       <use x="127.246094" xlink:href="#DejaVuSans-48"/>
      </g>
     </g>
    </g>
    <g id="text_4">
     <!-- N° Episode -->
     <defs>
      <path d="M 9.8125 72.90625 
L 23.09375 72.90625 
L 55.421875 11.921875 
L 55.421875 72.90625 
L 64.984375 72.90625 
L 64.984375 0 
L 51.703125 0 
L 19.390625 60.984375 
L 19.390625 0 
L 9.8125 0 
z
" id="DejaVuSans-78"/>
      <path d="M 25 67.921875 
Q 21.09375 67.921875 18.40625 65.203125 
Q 15.71875 62.5 15.71875 58.59375 
Q 15.71875 54.734375 18.40625 52.078125 
Q 21.09375 49.421875 25 49.421875 
Q 28.90625 49.421875 31.59375 52.078125 
Q 34.28125 54.734375 34.28125 58.59375 
Q 34.28125 62.453125 31.5625 65.1875 
Q 28.859375 67.921875 25 67.921875 
z
M 25 74.21875 
Q 28.125 74.21875 31 73.015625 
Q 33.890625 71.828125 35.984375 69.578125 
Q 38.234375 67.390625 39.359375 64.59375 
Q 40.484375 61.8125 40.484375 58.59375 
Q 40.484375 52.15625 35.96875 47.6875 
Q 31.453125 43.21875 24.90625 43.21875 
Q 18.3125 43.21875 13.90625 47.609375 
Q 9.515625 52 9.515625 58.59375 
Q 9.515625 65.140625 14 69.671875 
Q 18.5 74.21875 25 74.21875 
z
" id="DejaVuSans-176"/>
      <path id="DejaVuSans-32"/>
      <path d="M 9.8125 72.90625 
L 55.90625 72.90625 
L 55.90625 64.59375 
L 19.671875 64.59375 
L 19.671875 43.015625 
L 54.390625 43.015625 
L 54.390625 34.71875 
L 19.671875 34.71875 
L 19.671875 8.296875 
L 56.78125 8.296875 
L 56.78125 0 
L 9.8125 0 
z
" id="DejaVuSans-69"/>
      <path d="M 18.109375 8.203125 
L 18.109375 -20.796875 
L 9.078125 -20.796875 
L 9.078125 54.6875 
L 18.109375 54.6875 
L 18.109375 46.390625 
Q 20.953125 51.265625 25.265625 53.625 
Q 29.59375 56 35.59375 56 
Q 45.5625 56 51.78125 48.09375 
Q 58.015625 40.1875 58.015625 27.296875 
Q 58.015625 14.40625 51.78125 6.484375 
Q 45.5625 -1.421875 35.59375 -1.421875 
Q 29.59375 -1.421875 25.265625 0.953125 
Q 20.953125 3.328125 18.109375 8.203125 
z
M 48.6875 27.296875 
Q 48.6875 37.203125 44.609375 42.84375 
Q 40.53125 48.484375 33.40625 48.484375 
Q 26.265625 48.484375 22.1875 42.84375 
Q 18.109375 37.203125 18.109375 27.296875 
Q 18.109375 17.390625 22.1875 11.75 
Q 26.265625 6.109375 33.40625 6.109375 
Q 40.53125 6.109375 44.609375 11.75 
Q 48.6875 17.390625 48.6875 27.296875 
z
" id="DejaVuSans-112"/>
      <path d="M 9.421875 54.6875 
L 18.40625 54.6875 
L 18.40625 0 
L 9.421875 0 
z
M 9.421875 75.984375 
L 18.40625 75.984375 
L 18.40625 64.59375 
L 9.421875 64.59375 
z
" id="DejaVuSans-105"/>
      <path d="M 44.28125 53.078125 
L 44.28125 44.578125 
Q 40.484375 46.53125 36.375 47.5 
Q 32.28125 48.484375 27.875 48.484375 
Q 21.1875 48.484375 17.84375 46.4375 
Q 14.5 44.390625 14.5 40.28125 
Q 14.5 37.15625 16.890625 35.375 
Q 19.28125 33.59375 26.515625 31.984375 
L 29.59375 31.296875 
Q 39.15625 29.25 43.1875 25.515625 
Q 47.21875 21.78125 47.21875 15.09375 
Q 47.21875 7.46875 41.1875 3.015625 
Q 35.15625 -1.421875 24.609375 -1.421875 
Q 20.21875 -1.421875 15.453125 -0.5625 
Q 10.6875 0.296875 5.421875 2 
L 5.421875 11.28125 
Q 10.40625 8.6875 15.234375 7.390625 
Q 20.0625 6.109375 24.8125 6.109375 
Q 31.15625 6.109375 34.5625 8.28125 
Q 37.984375 10.453125 37.984375 14.40625 
Q 37.984375 18.0625 35.515625 20.015625 
Q 33.0625 21.96875 24.703125 23.78125 
L 21.578125 24.515625 
Q 13.234375 26.265625 9.515625 29.90625 
Q 5.8125 33.546875 5.8125 39.890625 
Q 5.8125 47.609375 11.28125 51.796875 
Q 16.75 56 26.8125 56 
Q 31.78125 56 36.171875 55.265625 
Q 40.578125 54.546875 44.28125 53.078125 
z
" id="DejaVuSans-115"/>
      <path d="M 30.609375 48.390625 
Q 23.390625 48.390625 19.1875 42.75 
Q 14.984375 37.109375 14.984375 27.296875 
Q 14.984375 17.484375 19.15625 11.84375 
Q 23.34375 6.203125 30.609375 6.203125 
Q 37.796875 6.203125 41.984375 11.859375 
Q 46.1875 17.53125 46.1875 27.296875 
Q 46.1875 37.015625 41.984375 42.703125 
Q 37.796875 48.390625 30.609375 48.390625 
z
M 30.609375 56 
Q 42.328125 56 49.015625 48.375 
Q 55.71875 40.765625 55.71875 27.296875 
Q 55.71875 13.875 49.015625 6.21875 
Q 42.328125 -1.421875 30.609375 -1.421875 
Q 18.84375 -1.421875 12.171875 6.21875 
Q 5.515625 13.875 5.515625 27.296875 
Q 5.515625 40.765625 12.171875 48.375 
Q 18.84375 56 30.609375 56 
z
" id="DejaVuSans-111"/>
      <path d="M 45.40625 46.390625 
L 45.40625 75.984375 
L 54.390625 75.984375 
L 54.390625 0 
L 45.40625 0 
L 45.40625 8.203125 
Q 42.578125 3.328125 38.25 0.953125 
Q 33.9375 -1.421875 27.875 -1.421875 
Q 17.96875 -1.421875 11.734375 6.484375 
Q 5.515625 14.40625 5.515625 27.296875 
Q 5.515625 40.1875 11.734375 48.09375 
Q 17.96875 56 27.875 56 
Q 33.9375 56 38.25 53.625 
Q 42.578125 51.265625 45.40625 46.390625 
z
M 14.796875 27.296875 
Q 14.796875 17.390625 18.875 11.75 
Q 22.953125 6.109375 30.078125 6.109375 
Q 37.203125 6.109375 41.296875 11.75 
Q 45.40625 17.390625 45.40625 27.296875 
Q 45.40625 37.203125 41.296875 42.84375 
Q 37.203125 48.484375 30.078125 48.484375 
Q 22.953125 48.484375 18.875 42.84375 
Q 14.796875 37.203125 14.796875 27.296875 
z
" id="DejaVuSans-100"/>
      <path d="M 56.203125 29.59375 
L 56.203125 25.203125 
L 14.890625 25.203125 
Q 15.484375 15.921875 20.484375 11.0625 
Q 25.484375 6.203125 34.421875 6.203125 
Q 39.59375 6.203125 44.453125 7.46875 
Q 49.3125 8.734375 54.109375 11.28125 
L 54.109375 2.78125 
Q 49.265625 0.734375 44.1875 -0.34375 
Q 39.109375 -1.421875 33.890625 -1.421875 
Q 20.796875 -1.421875 13.15625 6.1875 
Q 5.515625 13.8125 5.515625 26.8125 
Q 5.515625 40.234375 12.765625 48.109375 
Q 20.015625 56 32.328125 56 
Q 43.359375 56 49.78125 48.890625 
Q 56.203125 41.796875 56.203125 29.59375 
z
M 47.21875 32.234375 
Q 47.125 39.59375 43.09375 43.984375 
Q 39.0625 48.390625 32.421875 48.390625 
Q 24.90625 48.390625 20.390625 44.140625 
Q 15.875 39.890625 15.1875 32.171875 
z
" id="DejaVuSans-101"/>
     </defs>
     <g transform="translate(145.987358 284.596563)scale(0.1 -0.1)">
      <use xlink:href="#DejaVuSans-78"/>
      <use x="74.804688" xlink:href="#DejaVuSans-176"/>
      <use x="124.804688" xlink:href="#DejaVuSans-32"/>
      <use x="156.591797" xlink:href="#DejaVuSans-69"/>
      <use x="219.775391" xlink:href="#DejaVuSans-112"/>
      <use x="283.251953" xlink:href="#DejaVuSans-105"/>
      <use x="311.035156" xlink:href="#DejaVuSans-115"/>
      <use x="363.134766" xlink:href="#DejaVuSans-111"/>
      <use x="424.316406" xlink:href="#DejaVuSans-100"/>
      <use x="487.792969" xlink:href="#DejaVuSans-101"/>
     </g>
    </g>
   </g>
   <g id="matplotlib.axis_2">
    <g id="ytick_1">
     <g id="line2d_4">
      <defs>
       <path d="M 0 0 
L -3.5 0 
" id="m8a96dffd3f" style="stroke:#000000;stroke-width:0.8;"/>
      </defs>
      <g>
       <use style="stroke:#000000;stroke-width:0.8;" x="72" xlink:href="#m8a96dffd3f" y="246.185304"/>
      </g>
     </g>
     <g id="text_5">
      <!-- −200 -->
      <defs>
       <path d="M 10.59375 35.5 
L 73.1875 35.5 
L 73.1875 27.203125 
L 10.59375 27.203125 
z
" id="DejaVuSans-8722"/>
      </defs>
      <g transform="translate(37.532812 249.984523)scale(0.1 -0.1)">
       <use xlink:href="#DejaVuSans-8722"/>
       <use x="83.789062" xlink:href="#DejaVuSans-50"/>
       <use x="147.412109" xlink:href="#DejaVuSans-48"/>
       <use x="211.035156" xlink:href="#DejaVuSans-48"/>
      </g>
     </g>
    </g>
    <g id="ytick_2">
     <g id="line2d_5">
      <g>
       <use style="stroke:#000000;stroke-width:0.8;" x="72" xlink:href="#m8a96dffd3f" y="221.235437"/>
      </g>
     </g>
     <g id="text_6">
      <!-- −175 -->
      <defs>
       <path d="M 12.40625 8.296875 
L 28.515625 8.296875 
L 28.515625 63.921875 
L 10.984375 60.40625 
L 10.984375 69.390625 
L 28.421875 72.90625 
L 38.28125 72.90625 
L 38.28125 8.296875 
L 54.390625 8.296875 
L 54.390625 0 
L 12.40625 0 
z
" id="DejaVuSans-49"/>
       <path d="M 8.203125 72.90625 
L 55.078125 72.90625 
L 55.078125 68.703125 
L 28.609375 0 
L 18.3125 0 
L 43.21875 64.59375 
L 8.203125 64.59375 
z
" id="DejaVuSans-55"/>
       <path d="M 10.796875 72.90625 
L 49.515625 72.90625 
L 49.515625 64.59375 
L 19.828125 64.59375 
L 19.828125 46.734375 
Q 21.96875 47.46875 24.109375 47.828125 
Q 26.265625 48.1875 28.421875 48.1875 
Q 40.625 48.1875 47.75 41.5 
Q 54.890625 34.8125 54.890625 23.390625 
Q 54.890625 11.625 47.5625 5.09375 
Q 40.234375 -1.421875 26.90625 -1.421875 
Q 22.3125 -1.421875 17.546875 -0.640625 
Q 12.796875 0.140625 7.71875 1.703125 
L 7.71875 11.625 
Q 12.109375 9.234375 16.796875 8.0625 
Q 21.484375 6.890625 26.703125 6.890625 
Q 35.15625 6.890625 40.078125 11.328125 
Q 45.015625 15.765625 45.015625 23.390625 
Q 45.015625 31 40.078125 35.4375 
Q 35.15625 39.890625 26.703125 39.890625 
Q 22.75 39.890625 18.8125 39.015625 
Q 14.890625 38.140625 10.796875 36.28125 
z
" id="DejaVuSans-53"/>
      </defs>
      <g transform="translate(37.532812 225.034656)scale(0.1 -0.1)">
       <use xlink:href="#DejaVuSans-8722"/>
       <use x="83.789062" xlink:href="#DejaVuSans-49"/>
       <use x="147.412109" xlink:href="#DejaVuSans-55"/>
       <use x="211.035156" xlink:href="#DejaVuSans-53"/>
      </g>
     </g>
    </g>
    <g id="ytick_3">
     <g id="line2d_6">
      <g>
       <use style="stroke:#000000;stroke-width:0.8;" x="72" xlink:href="#m8a96dffd3f" y="196.285571"/>
      </g>
     </g>
     <g id="text_7">
      <!-- −150 -->
      <g transform="translate(37.532812 200.084789)scale(0.1 -0.1)">
       <use xlink:href="#DejaVuSans-8722"/>
       <use x="83.789062" xlink:href="#DejaVuSans-49"/>
       <use x="147.412109" xlink:href="#DejaVuSans-53"/>
       <use x="211.035156" xlink:href="#DejaVuSans-48"/>
      </g>
     </g>
    </g>
    <g id="ytick_4">
     <g id="line2d_7">
      <g>
       <use style="stroke:#000000;stroke-width:0.8;" x="72" xlink:href="#m8a96dffd3f" y="171.335704"/>
      </g>
     </g>
     <g id="text_8">
      <!-- −125 -->
      <g transform="translate(37.532812 175.134923)scale(0.1 -0.1)">
       <use xlink:href="#DejaVuSans-8722"/>
       <use x="83.789062" xlink:href="#DejaVuSans-49"/>
       <use x="147.412109" xlink:href="#DejaVuSans-50"/>
       <use x="211.035156" xlink:href="#DejaVuSans-53"/>
      </g>
     </g>
    </g>
    <g id="ytick_5">
     <g id="line2d_8">
      <g>
       <use style="stroke:#000000;stroke-width:0.8;" x="72" xlink:href="#m8a96dffd3f" y="146.385837"/>
      </g>
     </g>
     <g id="text_9">
      <!-- −100 -->
      <g transform="translate(37.532812 150.185056)scale(0.1 -0.1)">
       <use xlink:href="#DejaVuSans-8722"/>
       <use x="83.789062" xlink:href="#DejaVuSans-49"/>
       <use x="147.412109" xlink:href="#DejaVuSans-48"/>
       <use x="211.035156" xlink:href="#DejaVuSans-48"/>
      </g>
     </g>
    </g>
    <g id="ytick_6">
     <g id="line2d_9">
      <g>
       <use style="stroke:#000000;stroke-width:0.8;" x="72" xlink:href="#m8a96dffd3f" y="121.435971"/>
      </g>
     </g>
     <g id="text_10">
      <!-- −75 -->
      <g transform="translate(43.895313 125.235189)scale(0.1 -0.1)">
       <use xlink:href="#DejaVuSans-8722"/>
       <use x="83.789062" xlink:href="#DejaVuSans-55"/>
       <use x="147.412109" xlink:href="#DejaVuSans-53"/>
      </g>
     </g>
    </g>
    <g id="ytick_7">
     <g id="line2d_10">
      <g>
       <use style="stroke:#000000;stroke-width:0.8;" x="72" xlink:href="#m8a96dffd3f" y="96.486104"/>
      </g>
     </g>
     <g id="text_11">
      <!-- −50 -->
      <g transform="translate(43.895313 100.285323)scale(0.1 -0.1)">
       <use xlink:href="#DejaVuSans-8722"/>
       <use x="83.789062" xlink:href="#DejaVuSans-53"/>
       <use x="147.412109" xlink:href="#DejaVuSans-48"/>
      </g>
     </g>
    </g>
    <g id="ytick_8">
     <g id="line2d_11">
      <g>
       <use style="stroke:#000000;stroke-width:0.8;" x="72" xlink:href="#m8a96dffd3f" y="71.536237"/>
      </g>
     </g>
     <g id="text_12">
      <!-- −25 -->
      <g transform="translate(43.895313 75.335456)scale(0.1 -0.1)">
       <use xlink:href="#DejaVuSans-8722"/>
       <use x="83.789062" xlink:href="#DejaVuSans-50"/>
       <use x="147.412109" xlink:href="#DejaVuSans-53"/>
      </g>
     </g>
    </g>
    <g id="ytick_9">
     <g id="line2d_12">
      <g>
       <use style="stroke:#000000;stroke-width:0.8;" x="72" xlink:href="#m8a96dffd3f" y="46.586371"/>
      </g>
     </g>
     <g id="text_13">
      <!-- 0 -->
      <g transform="translate(58.6375 50.385589)scale(0.1 -0.1)">
       <use xlink:href="#DejaVuSans-48"/>
      </g>
     </g>
    </g>
    <g id="text_14">
     <!-- Episode Reward -->
     <defs>
      <path d="M 44.390625 34.1875 
Q 47.5625 33.109375 50.5625 29.59375 
Q 53.5625 26.078125 56.59375 19.921875 
L 66.609375 0 
L 56 0 
L 46.6875 18.703125 
Q 43.0625 26.03125 39.671875 28.421875 
Q 36.28125 30.8125 30.421875 30.8125 
L 19.671875 30.8125 
L 19.671875 0 
L 9.8125 0 
L 9.8125 72.90625 
L 32.078125 72.90625 
Q 44.578125 72.90625 50.734375 67.671875 
Q 56.890625 62.453125 56.890625 51.90625 
Q 56.890625 45.015625 53.6875 40.46875 
Q 50.484375 35.9375 44.390625 34.1875 
z
M 19.671875 64.796875 
L 19.671875 38.921875 
L 32.078125 38.921875 
Q 39.203125 38.921875 42.84375 42.21875 
Q 46.484375 45.515625 46.484375 51.90625 
Q 46.484375 58.296875 42.84375 61.546875 
Q 39.203125 64.796875 32.078125 64.796875 
z
" id="DejaVuSans-82"/>
      <path d="M 4.203125 54.6875 
L 13.1875 54.6875 
L 24.421875 12.015625 
L 35.59375 54.6875 
L 46.1875 54.6875 
L 57.421875 12.015625 
L 68.609375 54.6875 
L 77.59375 54.6875 
L 63.28125 0 
L 52.6875 0 
L 40.921875 44.828125 
L 29.109375 0 
L 18.5 0 
z
" id="DejaVuSans-119"/>
      <path d="M 34.28125 27.484375 
Q 23.390625 27.484375 19.1875 25 
Q 14.984375 22.515625 14.984375 16.5 
Q 14.984375 11.71875 18.140625 8.90625 
Q 21.296875 6.109375 26.703125 6.109375 
Q 34.1875 6.109375 38.703125 11.40625 
Q 43.21875 16.703125 43.21875 25.484375 
L 43.21875 27.484375 
z
M 52.203125 31.203125 
L 52.203125 0 
L 43.21875 0 
L 43.21875 8.296875 
Q 40.140625 3.328125 35.546875 0.953125 
Q 30.953125 -1.421875 24.3125 -1.421875 
Q 15.921875 -1.421875 10.953125 3.296875 
Q 6 8.015625 6 15.921875 
Q 6 25.140625 12.171875 29.828125 
Q 18.359375 34.515625 30.609375 34.515625 
L 43.21875 34.515625 
L 43.21875 35.40625 
Q 43.21875 41.609375 39.140625 45 
Q 35.0625 48.390625 27.6875 48.390625 
Q 23 48.390625 18.546875 47.265625 
Q 14.109375 46.140625 10.015625 43.890625 
L 10.015625 52.203125 
Q 14.9375 54.109375 19.578125 55.046875 
Q 24.21875 56 28.609375 56 
Q 40.484375 56 46.34375 49.84375 
Q 52.203125 43.703125 52.203125 31.203125 
z
" id="DejaVuSans-97"/>
      <path d="M 41.109375 46.296875 
Q 39.59375 47.171875 37.8125 47.578125 
Q 36.03125 48 33.890625 48 
Q 26.265625 48 22.1875 43.046875 
Q 18.109375 38.09375 18.109375 28.8125 
L 18.109375 0 
L 9.078125 0 
L 9.078125 54.6875 
L 18.109375 54.6875 
L 18.109375 46.1875 
Q 20.953125 51.171875 25.484375 53.578125 
Q 30.03125 56 36.53125 56 
Q 37.453125 56 38.578125 55.875 
Q 39.703125 55.765625 41.0625 55.515625 
z
" id="DejaVuSans-114"/>
     </defs>
     <g transform="translate(31.453125 185.59625)rotate(-90)scale(0.1 -0.1)">
      <use xlink:href="#DejaVuSans-69"/>
      <use x="63.183594" xlink:href="#DejaVuSans-112"/>
      <use x="126.660156" xlink:href="#DejaVuSans-105"/>
      <use x="154.443359" xlink:href="#DejaVuSans-115"/>
      <use x="206.542969" xlink:href="#DejaVuSans-111"/>
      <use x="267.724609" xlink:href="#DejaVuSans-100"/>
      <use x="331.201172" xlink:href="#DejaVuSans-101"/>
      <use x="392.724609" xlink:href="#DejaVuSans-32"/>
      <use x="424.511719" xlink:href="#DejaVuSans-82"/>
      <use x="493.931641" xlink:href="#DejaVuSans-101"/>
      <use x="555.455078" xlink:href="#DejaVuSans-119"/>
      <use x="637.242188" xlink:href="#DejaVuSans-97"/>
      <use x="698.521484" xlink:href="#DejaVuSans-114"/>
      <use x="739.619141" xlink:href="#DejaVuSans-100"/>
     </g>
    </g>
   </g>
   <g id="line2d_13">
    <path clip-path="url(#p9becaab967)" d="M 81.22314 239.438388 
L 81.555506 246.185304 
L 82.884968 246.185304 
L 83.217333 243.235247 
L 83.549698 246.185304 
L 83.882064 240.717335 
L 84.214429 246.185304 
L 84.546795 246.185304 
L 84.87916 244.385934 
L 85.211526 46.11943 
L 85.543891 230.904938 
L 85.876256 246.185304 
L 86.208622 237.862443 
L 86.540987 246.185304 
L 86.873353 242.495595 
L 87.205718 246.185304 
L 87.870449 246.185304 
L 88.202814 237.111856 
L 88.53518 246.185304 
L 88.867545 236.920593 
L 89.199911 246.185304 
L 89.532276 242.946484 
L 89.864642 246.185304 
L 90.197007 246.185304 
L 90.529372 242.886542 
L 90.861738 246.185304 
L 91.526469 246.185304 
L 91.858834 234.889179 
L 92.191199 246.185304 
L 92.523565 239.81001 
L 92.85593 239.119129 
L 93.188296 246.185304 
L 93.853027 246.185304 
L 94.185392 240.299369 
L 94.517757 246.185304 
L 94.850123 246.185304 
L 95.182488 237.653911 
L 95.514854 246.185304 
L 95.847219 236.85042 
L 96.179585 240.403033 
L 96.51195 246.185304 
L 96.844315 245.386906 
L 97.176681 246.185304 
L 97.509046 246.185304 
L 97.841412 236.104707 
L 98.173777 244.767997 
L 98.506143 246.185304 
L 98.838508 242.806173 
L 99.170873 246.185304 
L 99.503239 244.459251 
L 99.835604 246.185304 
L 100.500335 246.185304 
L 100.8327 238.563473 
L 101.165066 246.185304 
L 101.497431 239.391752 
L 101.829797 246.185304 
L 102.162162 244.712176 
L 102.494528 246.185304 
L 102.826893 245.489958 
L 103.159258 239.922225 
L 103.491624 246.185304 
L 103.823989 242.387239 
L 104.156355 246.185304 
L 104.48872 241.25311 
L 104.821086 246.185304 
L 105.153451 244.442538 
L 105.485816 233.050812 
L 105.818182 233.103397 
L 106.150547 246.185304 
L 106.482913 243.294655 
L 106.815278 246.185304 
L 107.147644 244.403162 
L 107.480009 246.185304 
L 107.812374 245.504362 
L 108.14474 238.594746 
L 108.477105 245.921575 
L 108.809471 246.185304 
L 109.141836 242.057926 
L 109.806567 246.185304 
L 110.138932 241.857662 
L 110.471298 240.550299 
L 110.803663 246.185304 
L 111.136029 238.644742 
L 111.468394 45.861773 
L 111.800759 246.185304 
L 112.46549 235.650483 
L 112.797856 243.041047 
L 113.130221 246.185304 
L 113.462587 244.830607 
L 113.794952 246.185304 
L 114.127317 246.185304 
L 114.459683 236.136935 
L 114.792048 246.185304 
L 115.124414 235.218044 
L 115.456779 246.185304 
L 115.789145 238.6694 
L 116.12151 244.071836 
L 116.453875 243.169113 
L 116.786241 246.185304 
L 117.118606 245.064486 
L 117.450972 246.185304 
L 117.783337 238.846829 
L 118.115702 246.185304 
L 118.448068 246.185304 
L 118.780433 235.329531 
L 119.112799 246.185304 
L 119.445164 243.94531 
L 119.77753 246.185304 
L 120.109895 245.771243 
L 120.44226 246.185304 
L 120.774626 237.698533 
L 121.106991 246.185304 
L 121.439357 246.185304 
L 121.771722 244.383049 
L 122.104088 246.185304 
L 122.436453 44.759052 
L 122.768818 244.357985 
L 123.101184 246.185304 
L 123.433549 239.212974 
L 123.765915 244.543758 
L 124.09828 246.185304 
L 124.430646 246.185304 
L 124.763011 245.222125 
L 125.095376 246.185304 
L 125.427742 228.363766 
L 125.760107 246.185304 
L 126.757203 246.185304 
L 127.089569 240.750109 
L 127.7543 246.185304 
L 128.419031 246.185304 
L 128.751396 242.169791 
L 129.083761 246.185304 
L 129.748492 246.185304 
L 130.080858 233.491897 
L 130.745589 246.070541 
L 131.410319 246.185304 
L 131.742685 243.61961 
L 132.07505 246.185304 
L 132.407416 245.737773 
L 132.739781 246.185304 
L 133.072147 246.185304 
L 133.404512 221.909986 
L 133.736877 240.657947 
L 134.069243 246.185304 
L 134.401608 243.29353 
L 134.733974 245.104325 
L 135.066339 246.185304 
L 135.398704 245.317665 
L 135.73107 246.185304 
L 136.063435 233.444722 
L 136.395801 45.404235 
L 136.728166 241.969967 
L 137.060532 241.673697 
L 137.392897 239.484952 
L 137.725262 246.185304 
L 138.389993 246.185304 
L 138.722359 244.967252 
L 139.054724 246.185304 
L 139.38709 244.897254 
L 139.719455 246.185304 
L 140.05182 246.185304 
L 140.384186 241.411375 
L 140.716551 246.185304 
L 141.048917 245.147424 
L 141.381282 246.185304 
L 141.713648 240.486174 
L 142.046013 246.185304 
L 142.378378 245.162136 
L 142.710744 246.185304 
L 143.043109 242.999208 
L 143.375475 241.773345 
L 143.70784 238.923187 
L 144.040205 246.185304 
L 144.372571 236.910002 
L 144.704936 246.185304 
L 145.037302 240.26863 
L 145.369667 246.185304 
L 145.702033 245.379908 
L 146.034398 243.485152 
L 146.366763 246.185304 
L 146.699129 242.679284 
L 147.031494 246.185304 
L 147.36386 246.185304 
L 147.696225 237.210666 
L 148.028591 246.185304 
L 148.360956 237.54946 
L 148.693321 246.185304 
L 149.025687 241.33114 
L 149.358052 246.185304 
L 149.690418 244.548055 
L 150.022783 246.185304 
L 150.355149 241.877722 
L 150.687514 246.185304 
L 151.019879 242.745289 
L 151.352245 246.185304 
L 151.68461 245.387542 
L 152.016976 246.185304 
L 152.349341 246.185304 
L 152.681706 232.509054 
L 153.014072 244.438201 
L 153.346437 241.924033 
L 153.678803 246.185304 
L 154.011168 242.805093 
L 154.343534 246.185304 
L 154.675899 246.185304 
L 155.008264 230.370881 
L 155.34063 245.282227 
L 155.672995 246.185304 
L 156.005361 238.816817 
L 156.337726 245.00087 
L 156.670092 246.185304 
L 157.334822 246.185304 
L 157.667188 241.745158 
L 157.999553 246.185304 
L 158.331919 232.57081 
L 158.664284 246.185304 
L 158.99665 241.669677 
L 159.329015 246.185304 
L 159.66138 244.781636 
L 159.993746 232.116367 
L 160.326111 246.185304 
L 160.658477 243.080075 
L 160.990842 246.185304 
L 161.323208 240.034909 
L 161.655573 246.185304 
L 161.987938 244.84347 
L 162.320304 246.185304 
L 162.652669 232.491702 
L 162.985035 246.185304 
L 163.3174 243.766046 
L 163.649765 243.568304 
L 163.982131 246.185304 
L 164.314496 240.000444 
L 164.646862 244.443571 
L 164.979227 246.185304 
L 165.311593 240.039192 
L 165.643958 241.241195 
L 165.976323 240.842755 
L 166.308689 246.185304 
L 166.641054 243.419112 
L 166.97342 246.185304 
L 167.305785 244.745829 
L 167.638151 233.635897 
L 167.970516 246.185304 
L 168.302881 237.354364 
L 168.635247 246.185304 
L 168.967612 246.185304 
L 169.299978 232.180013 
L 169.632343 237.474433 
L 169.964709 246.185304 
L 170.297074 246.185304 
L 170.629439 240.372208 
L 170.961805 246.185304 
L 171.29417 246.185304 
L 171.626536 243.730802 
L 171.958901 246.185304 
L 172.291266 241.135845 
L 172.623632 246.185304 
L 172.955997 246.185304 
L 173.288363 242.311585 
L 173.620728 246.185304 
L 173.953094 238.865795 
L 174.285459 246.185304 
L 174.95019 246.185304 
L 175.282555 230.27145 
L 175.614921 246.185304 
L 175.947286 242.143639 
L 176.279652 246.185304 
L 176.612017 240.258244 
L 176.944382 245.044705 
L 177.276748 241.551128 
L 177.609113 246.185304 
L 177.941479 243.394321 
L 178.273844 246.185304 
L 178.60621 243.367959 
L 178.938575 246.185304 
L 179.27094 246.185304 
L 179.603306 236.879271 
L 179.935671 246.24 
L 180.268037 246.185304 
L 180.600402 241.802639 
L 180.932767 246.185304 
L 181.265133 246.185304 
L 181.597498 244.727944 
L 181.929864 240.559987 
L 182.262229 246.185304 
L 182.594595 241.874713 
L 183.259325 246.185304 
L 183.591691 44.965469 
L 183.924056 236.056334 
L 184.256422 241.559579 
L 184.588787 243.133912 
L 184.921153 239.931866 
L 185.253518 241.4611 
L 185.585883 236.683817 
L 185.918249 237.414968 
L 186.58298 246.185304 
L 187.247711 246.185304 
L 187.580076 238.929961 
L 187.912441 246.185304 
L 188.244807 226.350092 
L 188.577172 246.185304 
L 189.241903 246.185304 
L 189.574268 240.347462 
L 189.906634 239.107666 
L 190.238999 244.392839 
L 190.571365 246.185304 
L 190.90373 239.80662 
L 191.236096 246.185304 
L 191.568461 238.292242 
L 191.900826 246.185304 
L 192.897923 246.185304 
L 193.230288 233.680072 
L 193.562654 246.185304 
L 193.895019 246.185304 
L 194.227384 240.317746 
L 194.55975 246.185304 
L 194.892115 236.886148 
L 195.224481 244.220217 
L 195.556846 246.185304 
L 195.889212 242.661203 
L 196.221577 246.185304 
L 196.886308 246.185304 
L 197.218673 243.675688 
L 197.551039 243.340194 
L 197.883404 246.185304 
L 198.215769 239.861204 
L 198.548135 246.185304 
L 199.545231 246.185304 
L 199.877597 239.941204 
L 200.209962 246.185304 
L 200.542327 238.881191 
L 200.874693 240.168363 
L 201.207058 246.185304 
L 201.539424 241.881503 
L 201.871789 240.670445 
L 202.204155 246.185304 
L 202.53652 241.072908 
L 202.868885 246.185304 
L 203.201251 244.505874 
L 203.533616 246.185304 
L 203.865982 241.677774 
L 204.198347 246.185304 
L 204.530713 246.185304 
L 204.863078 243.395797 
L 205.195443 246.185304 
L 205.527809 239.295152 
L 205.860174 246.185304 
L 206.19254 245.907114 
L 206.524905 246.185304 
L 206.85727 242.963254 
L 207.189636 246.185304 
L 207.854367 246.185304 
L 208.519098 235.861238 
L 208.851463 44.64 
L 209.183828 239.80954 
L 209.516194 246.185304 
L 209.848559 242.263726 
L 210.180925 246.185304 
L 210.51329 244.261529 
L 210.845656 246.185304 
L 211.178021 242.411225 
L 211.510386 245.345983 
L 211.842752 246.185304 
L 212.175117 246.185304 
L 212.507483 241.533225 
L 212.839848 246.185304 
L 213.172214 245.875738 
L 213.504579 246.185304 
L 213.836944 238.973464 
L 214.16931 246.185304 
L 214.501675 244.248128 
L 214.834041 246.185304 
L 215.498771 238.704713 
L 215.831137 246.185304 
L 216.163502 245.742374 
L 216.495868 232.999372 
L 216.828233 231.890581 
L 217.160599 246.185304 
L 217.492964 235.767158 
L 217.825329 246.185304 
L 218.157695 239.536804 
L 218.49006 246.185304 
L 218.822426 239.529824 
L 219.154791 246.185304 
L 219.487157 240.912276 
L 219.819522 246.185304 
L 220.151887 244.637333 
L 220.484253 241.173479 
L 220.816618 246.185304 
L 221.148984 240.479286 
L 221.481349 246.185304 
L 221.813715 246.185304 
L 222.14608 245.741369 
L 222.478445 246.185304 
L 222.810811 246.185304 
L 223.143176 238.772398 
L 223.807907 242.298425 
L 224.140273 236.570673 
L 224.472638 246.185304 
L 225.137369 246.185304 
L 225.469734 241.321849 
L 225.8021 240.852819 
L 226.46683 246.185304 
L 226.799196 239.055314 
L 227.131561 244.629918 
L 227.463927 246.185304 
L 227.796292 244.033537 
L 228.128658 246.185304 
L 228.461023 243.69574 
L 228.793388 246.185304 
L 229.125754 244.656597 
L 229.458119 246.185304 
L 229.790485 242.901998 
L 230.12285 246.185304 
L 230.455216 246.185304 
L 230.787581 241.850468 
L 231.119946 246.185304 
L 232.449408 246.185304 
L 232.781774 241.154413 
L 233.114139 246.185304 
L 233.446504 246.185304 
L 233.77887 243.518517 
L 234.111235 242.652037 
L 234.443601 246.185304 
L 234.775966 235.56619 
L 235.108331 246.185304 
L 235.773062 241.313058 
L 236.105428 246.185304 
L 236.437793 244.303941 
L 236.770159 236.352049 
L 237.102524 245.230037 
L 237.434889 246.185304 
L 237.767255 238.851263 
L 238.09962 239.873836 
L 238.431986 246.185304 
L 238.764351 236.519254 
L 239.096717 243.61902 
L 239.429082 245.631747 
L 239.761447 246.185304 
L 240.093813 246.185304 
L 240.426178 235.915577 
L 240.758544 246.185304 
L 241.090909 234.681982 
L 241.75564 246.185304 
L 242.088005 246.185304 
L 242.420371 245.969127 
L 242.752736 246.185304 
L 243.085102 235.989117 
L 243.417467 246.185304 
L 243.749832 244.478868 
L 244.082198 241.188419 
L 244.414563 246.185304 
L 244.746929 236.906845 
L 245.079294 246.185304 
L 245.41166 236.504589 
L 245.744025 246.185304 
L 246.07639 237.263407 
L 246.408756 246.185304 
L 246.741121 238.612162 
L 247.073487 246.185304 
L 247.405852 246.185304 
L 247.738218 243.497107 
L 248.070583 246.185304 
L 248.402948 242.130518 
L 248.735314 246.185304 
L 249.067679 245.426254 
L 249.400045 246.185304 
L 249.73241 240.035423 
L 250.064776 246.185304 
L 250.397141 242.893266 
L 250.729506 246.185304 
L 251.061872 244.27522 
L 251.394237 243.379009 
L 251.726603 246.185304 
L 252.058968 235.341399 
L 252.391333 244.965878 
L 252.723699 246.185304 
L 253.056064 229.798558 
L 253.38843 243.542681 
L 253.720795 246.185304 
L 254.053161 241.377176 
L 254.385526 246.185304 
L 254.717891 246.185304 
L 255.050257 215.920046 
L 255.382622 245.64351 
L 255.714988 244.589539 
L 256.047353 244.758117 
L 256.379719 241.319946 
L 256.712084 246.185304 
L 257.044449 244.533827 
L 257.376815 245.849692 
L 257.70918 246.185304 
L 258.041546 241.846808 
L 258.373911 246.185304 
L 258.706277 231.750335 
L 259.038642 246.185304 
L 260.035738 246.185304 
L 260.368104 240.870328 
L 260.700469 246.185304 
L 261.032834 242.223166 
L 261.3652 246.185304 
L 261.697565 242.848143 
L 262.029931 246.185304 
L 262.362296 234.264888 
L 263.027027 246.185304 
L 263.359392 245.217807 
L 263.691758 238.320311 
L 264.024123 246.185304 
L 264.356489 245.518929 
L 264.688854 246.185304 
L 265.02122 44.817961 
L 265.353585 236.699623 
L 265.68595 246.185304 
L 265.68595 246.185304 
" style="fill:none;stroke:#1f77b4;stroke-linecap:square;stroke-width:1.5;"/>
   </g>
   <g id="patch_3">
    <path d="M 72 256.32 
L 72 34.56 
" style="fill:none;stroke:#000000;stroke-linecap:square;stroke-linejoin:miter;stroke-width:0.8;"/>
   </g>
   <g id="patch_4">
    <path d="M 274.909091 256.32 
L 274.909091 34.56 
" style="fill:none;stroke:#000000;stroke-linecap:square;stroke-linejoin:miter;stroke-width:0.8;"/>
   </g>
   <g id="patch_5">
    <path d="M 72 256.32 
L 274.909091 256.32 
" style="fill:none;stroke:#000000;stroke-linecap:square;stroke-linejoin:miter;stroke-width:0.8;"/>
   </g>
   <g id="patch_6">
    <path d="M 72 34.56 
L 274.909091 34.56 
" style="fill:none;stroke:#000000;stroke-linecap:square;stroke-linejoin:miter;stroke-width:0.8;"/>
   </g>
   <g id="text_15">
    <!-- Episodes Total Reward -->
    <defs>
     <path d="M -0.296875 72.90625 
L 61.375 72.90625 
L 61.375 64.59375 
L 35.5 64.59375 
L 35.5 0 
L 25.59375 0 
L 25.59375 64.59375 
L -0.296875 64.59375 
z
" id="DejaVuSans-84"/>
     <path d="M 18.3125 70.21875 
L 18.3125 54.6875 
L 36.8125 54.6875 
L 36.8125 47.703125 
L 18.3125 47.703125 
L 18.3125 18.015625 
Q 18.3125 11.328125 20.140625 9.421875 
Q 21.96875 7.515625 27.59375 7.515625 
L 36.8125 7.515625 
L 36.8125 0 
L 27.59375 0 
Q 17.1875 0 13.234375 3.875 
Q 9.28125 7.765625 9.28125 18.015625 
L 9.28125 47.703125 
L 2.6875 47.703125 
L 2.6875 54.6875 
L 9.28125 54.6875 
L 9.28125 70.21875 
z
" id="DejaVuSans-116"/>
     <path d="M 9.421875 75.984375 
L 18.40625 75.984375 
L 18.40625 0 
L 9.421875 0 
z
" id="DejaVuSans-108"/>
    </defs>
    <g transform="translate(105.218608 28.56)scale(0.12 -0.12)">
     <use xlink:href="#DejaVuSans-69"/>
     <use x="63.183594" xlink:href="#DejaVuSans-112"/>
     <use x="126.660156" xlink:href="#DejaVuSans-105"/>
     <use x="154.443359" xlink:href="#DejaVuSans-115"/>
     <use x="206.542969" xlink:href="#DejaVuSans-111"/>
     <use x="267.724609" xlink:href="#DejaVuSans-100"/>
     <use x="331.201172" xlink:href="#DejaVuSans-101"/>
     <use x="392.724609" xlink:href="#DejaVuSans-115"/>
     <use x="444.824219" xlink:href="#DejaVuSans-32"/>
     <use x="476.611328" xlink:href="#DejaVuSans-84"/>
     <use x="537.429688" xlink:href="#DejaVuSans-111"/>
     <use x="598.611328" xlink:href="#DejaVuSans-116"/>
     <use x="637.820312" xlink:href="#DejaVuSans-97"/>
     <use x="699.099609" xlink:href="#DejaVuSans-108"/>
     <use x="726.882812" xlink:href="#DejaVuSans-32"/>
     <use x="758.669922" xlink:href="#DejaVuSans-82"/>
     <use x="828.089844" xlink:href="#DejaVuSans-101"/>
     <use x="889.613281" xlink:href="#DejaVuSans-119"/>
     <use x="971.400391" xlink:href="#DejaVuSans-97"/>
     <use x="1032.679688" xlink:href="#DejaVuSans-114"/>
     <use x="1073.777344" xlink:href="#DejaVuSans-100"/>
    </g>
   </g>
  </g>
  <g id="axes_2">
   <g id="patch_7">
    <path d="M 315.490909 256.32 
L 518.4 256.32 
L 518.4 34.56 
L 315.490909 34.56 
z
" style="fill:#ffffff;"/>
   </g>
   <g id="matplotlib.axis_3">
    <g id="xtick_4">
     <g id="line2d_14">
      <g>
       <use style="stroke:#000000;stroke-width:0.8;" x="324.381684" xlink:href="#m6baa402ad0" y="256.32"/>
      </g>
     </g>
     <g id="text_16">
      <!-- 0 -->
      <g transform="translate(321.200434 270.918437)scale(0.1 -0.1)">
       <use xlink:href="#DejaVuSans-48"/>
      </g>
     </g>
    </g>
    <g id="xtick_5">
     <g id="line2d_15">
      <g>
       <use style="stroke:#000000;stroke-width:0.8;" x="390.854769" xlink:href="#m6baa402ad0" y="256.32"/>
      </g>
     </g>
     <g id="text_17">
      <!-- 200 -->
      <g transform="translate(381.311019 270.918437)scale(0.1 -0.1)">
       <use xlink:href="#DejaVuSans-50"/>
       <use x="63.623047" xlink:href="#DejaVuSans-48"/>
       <use x="127.246094" xlink:href="#DejaVuSans-48"/>
      </g>
     </g>
    </g>
    <g id="xtick_6">
     <g id="line2d_16">
      <g>
       <use style="stroke:#000000;stroke-width:0.8;" x="457.327853" xlink:href="#m6baa402ad0" y="256.32"/>
      </g>
     </g>
     <g id="text_18">
      <!-- 400 -->
      <g transform="translate(447.784103 270.918437)scale(0.1 -0.1)">
       <use xlink:href="#DejaVuSans-52"/>
       <use x="63.623047" xlink:href="#DejaVuSans-48"/>
       <use x="127.246094" xlink:href="#DejaVuSans-48"/>
      </g>
     </g>
    </g>
    <g id="text_19">
     <!-- N° Episode -->
     <g transform="translate(389.478267 284.596563)scale(0.1 -0.1)">
      <use xlink:href="#DejaVuSans-78"/>
      <use x="74.804688" xlink:href="#DejaVuSans-176"/>
      <use x="124.804688" xlink:href="#DejaVuSans-32"/>
      <use x="156.591797" xlink:href="#DejaVuSans-69"/>
      <use x="219.775391" xlink:href="#DejaVuSans-112"/>
      <use x="283.251953" xlink:href="#DejaVuSans-105"/>
      <use x="311.035156" xlink:href="#DejaVuSans-115"/>
      <use x="363.134766" xlink:href="#DejaVuSans-111"/>
      <use x="424.316406" xlink:href="#DejaVuSans-100"/>
      <use x="487.792969" xlink:href="#DejaVuSans-101"/>
     </g>
    </g>
   </g>
   <g id="matplotlib.axis_4">
    <g id="ytick_10">
     <g id="line2d_17">
      <g>
       <use style="stroke:#000000;stroke-width:0.8;" x="315.490909" xlink:href="#m8a96dffd3f" y="256.32"/>
      </g>
     </g>
     <g id="text_20">
      <!-- 0.0 -->
      <defs>
       <path d="M 10.6875 12.40625 
L 21 12.40625 
L 21 0 
L 10.6875 0 
z
" id="DejaVuSans-46"/>
      </defs>
      <g transform="translate(292.587784 260.119219)scale(0.1 -0.1)">
       <use xlink:href="#DejaVuSans-48"/>
       <use x="63.623047" xlink:href="#DejaVuSans-46"/>
       <use x="95.410156" xlink:href="#DejaVuSans-48"/>
      </g>
     </g>
    </g>
    <g id="ytick_11">
     <g id="line2d_18">
      <g>
       <use style="stroke:#000000;stroke-width:0.8;" x="315.490909" xlink:href="#m8a96dffd3f" y="231.12"/>
      </g>
     </g>
     <g id="text_21">
      <!-- 2.5 -->
      <g transform="translate(292.587784 234.919219)scale(0.1 -0.1)">
       <use xlink:href="#DejaVuSans-50"/>
       <use x="63.623047" xlink:href="#DejaVuSans-46"/>
       <use x="95.410156" xlink:href="#DejaVuSans-53"/>
      </g>
     </g>
    </g>
    <g id="ytick_12">
     <g id="line2d_19">
      <g>
       <use style="stroke:#000000;stroke-width:0.8;" x="315.490909" xlink:href="#m8a96dffd3f" y="205.92"/>
      </g>
     </g>
     <g id="text_22">
      <!-- 5.0 -->
      <g transform="translate(292.587784 209.719219)scale(0.1 -0.1)">
       <use xlink:href="#DejaVuSans-53"/>
       <use x="63.623047" xlink:href="#DejaVuSans-46"/>
       <use x="95.410156" xlink:href="#DejaVuSans-48"/>
      </g>
     </g>
    </g>
    <g id="ytick_13">
     <g id="line2d_20">
      <g>
       <use style="stroke:#000000;stroke-width:0.8;" x="315.490909" xlink:href="#m8a96dffd3f" y="180.72"/>
      </g>
     </g>
     <g id="text_23">
      <!-- 7.5 -->
      <g transform="translate(292.587784 184.519219)scale(0.1 -0.1)">
       <use xlink:href="#DejaVuSans-55"/>
       <use x="63.623047" xlink:href="#DejaVuSans-46"/>
       <use x="95.410156" xlink:href="#DejaVuSans-53"/>
      </g>
     </g>
    </g>
    <g id="ytick_14">
     <g id="line2d_21">
      <g>
       <use style="stroke:#000000;stroke-width:0.8;" x="315.490909" xlink:href="#m8a96dffd3f" y="155.52"/>
      </g>
     </g>
     <g id="text_24">
      <!-- 10.0 -->
      <g transform="translate(286.225284 159.319219)scale(0.1 -0.1)">
       <use xlink:href="#DejaVuSans-49"/>
       <use x="63.623047" xlink:href="#DejaVuSans-48"/>
       <use x="127.246094" xlink:href="#DejaVuSans-46"/>
       <use x="159.033203" xlink:href="#DejaVuSans-48"/>
      </g>
     </g>
    </g>
    <g id="ytick_15">
     <g id="line2d_22">
      <g>
       <use style="stroke:#000000;stroke-width:0.8;" x="315.490909" xlink:href="#m8a96dffd3f" y="130.32"/>
      </g>
     </g>
     <g id="text_25">
      <!-- 12.5 -->
      <g transform="translate(286.225284 134.119219)scale(0.1 -0.1)">
       <use xlink:href="#DejaVuSans-49"/>
       <use x="63.623047" xlink:href="#DejaVuSans-50"/>
       <use x="127.246094" xlink:href="#DejaVuSans-46"/>
       <use x="159.033203" xlink:href="#DejaVuSans-53"/>
      </g>
     </g>
    </g>
    <g id="ytick_16">
     <g id="line2d_23">
      <g>
       <use style="stroke:#000000;stroke-width:0.8;" x="315.490909" xlink:href="#m8a96dffd3f" y="105.12"/>
      </g>
     </g>
     <g id="text_26">
      <!-- 15.0 -->
      <g transform="translate(286.225284 108.919219)scale(0.1 -0.1)">
       <use xlink:href="#DejaVuSans-49"/>
       <use x="63.623047" xlink:href="#DejaVuSans-53"/>
       <use x="127.246094" xlink:href="#DejaVuSans-46"/>
       <use x="159.033203" xlink:href="#DejaVuSans-48"/>
      </g>
     </g>
    </g>
    <g id="ytick_17">
     <g id="line2d_24">
      <g>
       <use style="stroke:#000000;stroke-width:0.8;" x="315.490909" xlink:href="#m8a96dffd3f" y="79.92"/>
      </g>
     </g>
     <g id="text_27">
      <!-- 17.5 -->
      <g transform="translate(286.225284 83.719219)scale(0.1 -0.1)">
       <use xlink:href="#DejaVuSans-49"/>
       <use x="63.623047" xlink:href="#DejaVuSans-55"/>
       <use x="127.246094" xlink:href="#DejaVuSans-46"/>
       <use x="159.033203" xlink:href="#DejaVuSans-53"/>
      </g>
     </g>
    </g>
    <g id="ytick_18">
     <g id="line2d_25">
      <g>
       <use style="stroke:#000000;stroke-width:0.8;" x="315.490909" xlink:href="#m8a96dffd3f" y="54.72"/>
      </g>
     </g>
     <g id="text_28">
      <!-- 20.0 -->
      <g transform="translate(286.225284 58.519219)scale(0.1 -0.1)">
       <use xlink:href="#DejaVuSans-50"/>
       <use x="63.623047" xlink:href="#DejaVuSans-48"/>
       <use x="127.246094" xlink:href="#DejaVuSans-46"/>
       <use x="159.033203" xlink:href="#DejaVuSans-48"/>
      </g>
     </g>
    </g>
    <g id="text_29">
     <!-- Episode Length -->
     <defs>
      <path d="M 9.8125 72.90625 
L 19.671875 72.90625 
L 19.671875 8.296875 
L 55.171875 8.296875 
L 55.171875 0 
L 9.8125 0 
z
" id="DejaVuSans-76"/>
      <path d="M 54.890625 33.015625 
L 54.890625 0 
L 45.90625 0 
L 45.90625 32.71875 
Q 45.90625 40.484375 42.875 44.328125 
Q 39.84375 48.1875 33.796875 48.1875 
Q 26.515625 48.1875 22.3125 43.546875 
Q 18.109375 38.921875 18.109375 30.90625 
L 18.109375 0 
L 9.078125 0 
L 9.078125 54.6875 
L 18.109375 54.6875 
L 18.109375 46.1875 
Q 21.34375 51.125 25.703125 53.5625 
Q 30.078125 56 35.796875 56 
Q 45.21875 56 50.046875 50.171875 
Q 54.890625 44.34375 54.890625 33.015625 
z
" id="DejaVuSans-110"/>
      <path d="M 45.40625 27.984375 
Q 45.40625 37.75 41.375 43.109375 
Q 37.359375 48.484375 30.078125 48.484375 
Q 22.859375 48.484375 18.828125 43.109375 
Q 14.796875 37.75 14.796875 27.984375 
Q 14.796875 18.265625 18.828125 12.890625 
Q 22.859375 7.515625 30.078125 7.515625 
Q 37.359375 7.515625 41.375 12.890625 
Q 45.40625 18.265625 45.40625 27.984375 
z
M 54.390625 6.78125 
Q 54.390625 -7.171875 48.1875 -13.984375 
Q 42 -20.796875 29.203125 -20.796875 
Q 24.46875 -20.796875 20.265625 -20.09375 
Q 16.0625 -19.390625 12.109375 -17.921875 
L 12.109375 -9.1875 
Q 16.0625 -11.328125 19.921875 -12.34375 
Q 23.78125 -13.375 27.78125 -13.375 
Q 36.625 -13.375 41.015625 -8.765625 
Q 45.40625 -4.15625 45.40625 5.171875 
L 45.40625 9.625 
Q 42.625 4.78125 38.28125 2.390625 
Q 33.9375 0 27.875 0 
Q 17.828125 0 11.671875 7.65625 
Q 5.515625 15.328125 5.515625 27.984375 
Q 5.515625 40.671875 11.671875 48.328125 
Q 17.828125 56 27.875 56 
Q 33.9375 56 38.28125 53.609375 
Q 42.625 51.21875 45.40625 46.390625 
L 45.40625 54.6875 
L 54.390625 54.6875 
z
" id="DejaVuSans-103"/>
      <path d="M 54.890625 33.015625 
L 54.890625 0 
L 45.90625 0 
L 45.90625 32.71875 
Q 45.90625 40.484375 42.875 44.328125 
Q 39.84375 48.1875 33.796875 48.1875 
Q 26.515625 48.1875 22.3125 43.546875 
Q 18.109375 38.921875 18.109375 30.90625 
L 18.109375 0 
L 9.078125 0 
L 9.078125 75.984375 
L 18.109375 75.984375 
L 18.109375 46.1875 
Q 21.34375 51.125 25.703125 53.5625 
Q 30.078125 56 35.796875 56 
Q 45.21875 56 50.046875 50.171875 
Q 54.890625 44.34375 54.890625 33.015625 
z
" id="DejaVuSans-104"/>
     </defs>
     <g transform="translate(280.145597 184.000156)rotate(-90)scale(0.1 -0.1)">
      <use xlink:href="#DejaVuSans-69"/>
      <use x="63.183594" xlink:href="#DejaVuSans-112"/>
      <use x="126.660156" xlink:href="#DejaVuSans-105"/>
      <use x="154.443359" xlink:href="#DejaVuSans-115"/>
      <use x="206.542969" xlink:href="#DejaVuSans-111"/>
      <use x="267.724609" xlink:href="#DejaVuSans-100"/>
      <use x="331.201172" xlink:href="#DejaVuSans-101"/>
      <use x="392.724609" xlink:href="#DejaVuSans-32"/>
      <use x="424.511719" xlink:href="#DejaVuSans-76"/>
      <use x="480.208984" xlink:href="#DejaVuSans-101"/>
      <use x="541.732422" xlink:href="#DejaVuSans-110"/>
      <use x="605.111328" xlink:href="#DejaVuSans-103"/>
      <use x="668.587891" xlink:href="#DejaVuSans-116"/>
      <use x="707.796875" xlink:href="#DejaVuSans-104"/>
     </g>
    </g>
   </g>
   <g id="line2d_26">
    <path clip-path="url(#p4a1fc36025)" d="M 324.71405 175.68 
L 325.046415 246.24 
L 326.375877 246.24 
L 326.708242 175.68 
L 327.040608 246.24 
L 327.372973 205.92 
L 327.705338 246.24 
L 328.037704 246.24 
L 328.370069 236.16 
L 328.702435 246.24 
L 329.0348 64.8 
L 329.367166 246.24 
L 329.699531 165.6 
L 330.031896 246.24 
L 330.364262 205.92 
L 330.696627 246.24 
L 331.028993 226.08 
L 331.361358 246.24 
L 331.693723 165.6 
L 332.026089 246.24 
L 332.358454 145.44 
L 332.69082 246.24 
L 333.023185 205.92 
L 333.355551 246.24 
L 333.687916 246.24 
L 334.020281 165.6 
L 334.352647 246.24 
L 335.017378 246.24 
L 335.349743 135.36 
L 335.682109 246.24 
L 336.346839 175.68 
L 336.679205 246.24 
L 337.343936 246.24 
L 337.676301 165.6 
L 338.008667 246.24 
L 338.341032 246.24 
L 338.673397 175.68 
L 339.005763 246.24 
L 339.338128 165.6 
L 339.670494 185.76 
L 340.002859 246.24 
L 340.335224 226.08 
L 340.66759 246.24 
L 340.999955 246.24 
L 341.332321 185.76 
L 341.664686 205.92 
L 341.997052 246.24 
L 342.329417 216 
L 342.661782 246.24 
L 342.994148 185.76 
L 343.326513 246.24 
L 343.991244 246.24 
L 344.32361 165.6 
L 344.655975 246.24 
L 344.98834 165.6 
L 345.320706 246.24 
L 345.653071 216 
L 345.985437 246.24 
L 346.650168 195.84 
L 346.982533 246.24 
L 347.314898 226.08 
L 347.647264 246.24 
L 347.979629 195.84 
L 348.311995 246.24 
L 348.64436 236.16 
L 348.976725 155.52 
L 349.309091 155.52 
L 349.641456 246.24 
L 349.973822 185.76 
L 350.306187 246.24 
L 350.638553 195.84 
L 350.970918 246.24 
L 351.303283 226.08 
L 351.635649 145.44 
L 351.968014 226.08 
L 352.30038 246.24 
L 352.632745 195.84 
L 353.297476 246.24 
L 353.962207 155.52 
L 354.294572 246.24 
L 354.626938 185.76 
L 354.959303 246.24 
L 355.291669 246.24 
L 355.624034 155.52 
L 355.956399 155.52 
L 356.288765 216 
L 356.62113 246.24 
L 356.953496 216 
L 357.285861 246.24 
L 357.618226 246.24 
L 357.950592 165.6 
L 358.282957 246.24 
L 358.615323 165.6 
L 358.947688 246.24 
L 359.280054 165.6 
L 359.612419 155.52 
L 360.27715 246.24 
L 360.609515 226.08 
L 360.941881 246.24 
L 361.274246 175.68 
L 361.606612 246.24 
L 361.938977 246.24 
L 362.271342 165.6 
L 362.603708 246.24 
L 362.936073 195.84 
L 363.268439 246.24 
L 363.600804 236.16 
L 363.93317 246.24 
L 364.265535 165.6 
L 364.5979 246.24 
L 364.930266 246.24 
L 365.262631 216 
L 365.594997 246.24 
L 365.927362 246.24 
L 366.259727 236.16 
L 366.592093 246.24 
L 366.924458 165.6 
L 367.256824 226.08 
L 367.589189 246.24 
L 367.921555 246.24 
L 368.25392 195.84 
L 368.586285 246.24 
L 368.918651 54.72 
L 369.251016 246.24 
L 370.248113 246.24 
L 370.580478 175.68 
L 370.912843 175.68 
L 371.245209 246.24 
L 371.90994 246.24 
L 372.242305 185.76 
L 372.574671 246.24 
L 373.239401 246.24 
L 373.571767 165.6 
L 374.568863 246.24 
L 374.901229 246.24 
L 375.233594 185.76 
L 375.565959 246.24 
L 375.898325 236.16 
L 376.23069 246.24 
L 376.563056 246.24 
L 376.895421 74.88 
L 377.227786 195.84 
L 377.560152 246.24 
L 377.892517 226.08 
L 378.224883 185.76 
L 378.557248 246.24 
L 378.889614 236.16 
L 379.221979 246.24 
L 379.554344 165.6 
L 379.88671 246.24 
L 380.219075 175.68 
L 380.551441 145.44 
L 381.216172 246.24 
L 381.880902 246.24 
L 382.213268 195.84 
L 382.545633 246.24 
L 382.877999 216 
L 383.210364 246.24 
L 383.54273 246.24 
L 383.875095 195.84 
L 384.20746 246.24 
L 384.539826 216 
L 384.872191 246.24 
L 385.204557 195.84 
L 385.536922 246.24 
L 385.869287 205.92 
L 386.201653 246.24 
L 386.866384 205.92 
L 387.198749 205.92 
L 387.531115 246.24 
L 387.86348 165.6 
L 388.195845 246.24 
L 388.528211 195.84 
L 388.860576 246.24 
L 389.525307 226.08 
L 389.857673 246.24 
L 390.190038 195.84 
L 390.522403 246.24 
L 390.854769 246.24 
L 391.187134 175.68 
L 391.5195 246.24 
L 391.851865 165.6 
L 392.184231 246.24 
L 392.516596 165.6 
L 392.848961 246.24 
L 393.181327 216 
L 393.513692 246.24 
L 393.846058 216 
L 394.178423 246.24 
L 394.510788 216 
L 394.843154 246.24 
L 395.175519 226.08 
L 395.507885 246.24 
L 395.84025 246.24 
L 396.172616 165.6 
L 397.169712 246.24 
L 397.502077 195.84 
L 397.834443 246.24 
L 398.166808 246.24 
L 398.499174 145.44 
L 398.831539 226.08 
L 399.163904 246.24 
L 399.49627 195.84 
L 399.828635 236.16 
L 400.161001 246.24 
L 400.825732 246.24 
L 401.158097 205.92 
L 401.490462 246.24 
L 401.822828 165.6 
L 402.155193 246.24 
L 402.487559 205.92 
L 402.819924 246.24 
L 403.152289 226.08 
L 403.484655 155.52 
L 403.81702 246.24 
L 404.149386 185.76 
L 404.481751 246.24 
L 404.814117 175.68 
L 405.146482 246.24 
L 405.478847 236.16 
L 405.811213 246.24 
L 406.143578 165.6 
L 406.475944 246.24 
L 406.808309 205.92 
L 407.140675 216 
L 407.47304 246.24 
L 407.805405 185.76 
L 408.137771 236.16 
L 408.470136 246.24 
L 408.802502 165.6 
L 409.134867 205.92 
L 409.467233 205.92 
L 409.799598 246.24 
L 410.131963 205.92 
L 410.464329 246.24 
L 410.796694 226.08 
L 411.12906 155.52 
L 411.461425 246.24 
L 411.79379 175.68 
L 412.126156 246.24 
L 412.458521 246.24 
L 412.790887 165.6 
L 413.123252 165.6 
L 413.455618 246.24 
L 413.787983 246.24 
L 414.120348 216 
L 414.452714 246.24 
L 414.785079 246.24 
L 415.117445 226.08 
L 415.44981 246.24 
L 415.782176 195.84 
L 416.114541 246.24 
L 416.446906 246.24 
L 416.779272 175.68 
L 417.111637 246.24 
L 417.444003 145.44 
L 417.776368 246.24 
L 418.441099 246.24 
L 418.773464 155.52 
L 419.10583 246.24 
L 419.438195 165.6 
L 419.770561 246.24 
L 420.102926 185.76 
L 420.435291 236.16 
L 420.767657 195.84 
L 421.100022 246.24 
L 421.432388 226.08 
L 421.764753 246.24 
L 422.097119 165.6 
L 422.429484 246.24 
L 422.761849 246.24 
L 423.094215 175.68 
L 423.758946 246.24 
L 424.091311 216 
L 424.423677 246.24 
L 424.756042 246.24 
L 425.420773 205.92 
L 425.753138 246.24 
L 426.085504 185.76 
L 426.417869 236.16 
L 426.750235 246.24 
L 427.0826 246.24 
L 427.414965 175.68 
L 427.747331 205.92 
L 428.079696 205.92 
L 428.412062 195.84 
L 428.744427 216 
L 429.076792 155.52 
L 429.409158 155.52 
L 429.741523 185.76 
L 430.073889 246.24 
L 430.73862 246.24 
L 431.070985 175.68 
L 431.40335 246.24 
L 431.735716 44.64 
L 432.068081 246.24 
L 432.732812 246.24 
L 433.065178 185.76 
L 433.397543 175.68 
L 433.729908 195.84 
L 434.062274 246.24 
L 434.394639 205.92 
L 434.727005 246.24 
L 435.05937 185.76 
L 435.391736 246.24 
L 436.388832 246.24 
L 436.721197 175.68 
L 437.053563 246.24 
L 437.385928 246.24 
L 437.718294 175.68 
L 438.050659 246.24 
L 438.383024 165.6 
L 438.71539 226.08 
L 439.047755 246.24 
L 439.380121 216 
L 439.712486 246.24 
L 440.377217 246.24 
L 440.709582 226.08 
L 441.041948 195.84 
L 441.374313 246.24 
L 441.706679 195.84 
L 442.039044 246.24 
L 443.03614 246.24 
L 443.368506 165.6 
L 443.700871 246.24 
L 444.033237 165.6 
L 444.697967 246.24 
L 445.030333 216 
L 445.362698 205.92 
L 445.695064 246.24 
L 446.027429 216 
L 446.359795 246.24 
L 446.69216 226.08 
L 447.024525 246.24 
L 447.356891 216 
L 447.689256 246.24 
L 448.021622 246.24 
L 448.353987 165.6 
L 448.686352 246.24 
L 449.018718 195.84 
L 449.351083 246.24 
L 449.683449 236.16 
L 450.015814 246.24 
L 450.34818 185.76 
L 450.680545 246.24 
L 451.345276 246.24 
L 451.677641 165.6 
L 452.010007 155.52 
L 452.342372 246.24 
L 452.674738 205.92 
L 453.007103 246.24 
L 453.339468 195.84 
L 453.671834 246.24 
L 454.004199 195.84 
L 454.336565 246.24 
L 454.66893 165.6 
L 455.001296 226.08 
L 455.333661 246.24 
L 455.666026 246.24 
L 455.998392 216 
L 456.330757 246.24 
L 456.663123 226.08 
L 456.995488 246.24 
L 457.327853 195.84 
L 457.660219 246.24 
L 457.992584 226.08 
L 458.32495 246.24 
L 458.657315 205.92 
L 458.989681 195.84 
L 459.322046 246.24 
L 459.654411 226.08 
L 459.986777 155.52 
L 460.319142 155.52 
L 460.651508 246.24 
L 460.983873 165.6 
L 461.316239 246.24 
L 461.648604 165.6 
L 461.980969 246.24 
L 462.313335 185.76 
L 462.6457 246.24 
L 462.978066 155.52 
L 463.310431 246.24 
L 463.975162 145.44 
L 464.307527 246.24 
L 464.639893 185.76 
L 464.972258 246.24 
L 465.304624 246.24 
L 465.636989 236.16 
L 465.969354 246.24 
L 466.30172 246.24 
L 466.634085 175.68 
L 466.966451 205.92 
L 467.298816 205.92 
L 467.631182 155.52 
L 467.963547 246.24 
L 468.295912 226.08 
L 468.628278 246.24 
L 468.960643 205.92 
L 469.625374 205.92 
L 469.95774 246.24 
L 470.290105 185.76 
L 470.62247 236.16 
L 470.954836 246.24 
L 471.287201 216 
L 471.619567 246.24 
L 471.951932 216 
L 472.284298 246.24 
L 472.616663 216 
L 472.949028 246.24 
L 473.281394 216 
L 473.613759 246.24 
L 473.946125 246.24 
L 474.27849 205.92 
L 474.610855 246.24 
L 475.940317 246.24 
L 476.272683 175.68 
L 476.605048 246.24 
L 476.937413 246.24 
L 477.269779 205.92 
L 477.93451 246.24 
L 478.266875 165.6 
L 478.599241 246.24 
L 478.931606 175.68 
L 479.263971 195.84 
L 479.596337 246.24 
L 479.928702 216 
L 480.261068 155.52 
L 480.925799 246.24 
L 481.258164 165.6 
L 481.922895 246.24 
L 482.25526 165.6 
L 482.587626 205.92 
L 482.919991 216 
L 483.252356 246.24 
L 483.584722 246.24 
L 483.917087 165.6 
L 484.249453 246.24 
L 484.581818 165.6 
L 484.914184 195.84 
L 485.246549 246.24 
L 485.578914 246.24 
L 485.91128 236.16 
L 486.243645 246.24 
L 486.576011 165.6 
L 486.908376 246.24 
L 487.240742 205.92 
L 487.573107 216 
L 487.905472 246.24 
L 488.237838 165.6 
L 488.570203 246.24 
L 488.902569 165.6 
L 489.234934 246.24 
L 489.5673 165.6 
L 489.899665 246.24 
L 490.23203 185.76 
L 490.564396 246.24 
L 490.896761 246.24 
L 491.229127 155.52 
L 491.561492 246.24 
L 491.893857 195.84 
L 492.226223 246.24 
L 492.558588 236.16 
L 492.890954 246.24 
L 493.223319 205.92 
L 493.555685 246.24 
L 493.88805 226.08 
L 494.220415 246.24 
L 494.552781 195.84 
L 495.217512 246.24 
L 495.549877 165.6 
L 495.882243 195.84 
L 496.214608 246.24 
L 496.546973 125.28 
L 496.879339 216 
L 497.211704 246.24 
L 497.54407 216 
L 497.876435 246.24 
L 498.208801 246.24 
L 498.541166 64.8 
L 498.873531 205.92 
L 499.205897 226.08 
L 499.538262 236.16 
L 499.870628 205.92 
L 500.202993 246.24 
L 500.535358 216 
L 500.867724 216 
L 501.200089 246.24 
L 501.532455 205.92 
L 501.86482 246.24 
L 502.197186 165.6 
L 502.529551 246.24 
L 503.526647 246.24 
L 503.859013 195.84 
L 504.191378 246.24 
L 504.523744 205.92 
L 504.856109 246.24 
L 505.188474 216 
L 505.52084 246.24 
L 505.853205 175.68 
L 506.185571 185.76 
L 506.517936 246.24 
L 506.850302 236.16 
L 507.182667 175.68 
L 507.515032 246.24 
L 507.847398 226.08 
L 508.179763 246.24 
L 508.512129 246.24 
L 508.844494 125.28 
L 509.17686 246.24 
L 509.17686 246.24 
" style="fill:none;stroke:#1f77b4;stroke-linecap:square;stroke-width:1.5;"/>
   </g>
   <g id="patch_8">
    <path d="M 315.490909 256.32 
L 315.490909 34.56 
" style="fill:none;stroke:#000000;stroke-linecap:square;stroke-linejoin:miter;stroke-width:0.8;"/>
   </g>
   <g id="patch_9">
    <path d="M 518.4 256.32 
L 518.4 34.56 
" style="fill:none;stroke:#000000;stroke-linecap:square;stroke-linejoin:miter;stroke-width:0.8;"/>
   </g>
   <g id="patch_10">
    <path d="M 315.490909 256.32 
L 518.4 256.32 
" style="fill:none;stroke:#000000;stroke-linecap:square;stroke-linejoin:miter;stroke-width:0.8;"/>
   </g>
   <g id="patch_11">
    <path d="M 315.490909 34.56 
L 518.4 34.56 
" style="fill:none;stroke:#000000;stroke-linecap:square;stroke-linejoin:miter;stroke-width:0.8;"/>
   </g>
   <g id="text_30">
    <!-- Episodes Length -->
    <g transform="translate(367.547642 28.56)scale(0.12 -0.12)">
     <use xlink:href="#DejaVuSans-69"/>
     <use x="63.183594" xlink:href="#DejaVuSans-112"/>
     <use x="126.660156" xlink:href="#DejaVuSans-105"/>
     <use x="154.443359" xlink:href="#DejaVuSans-115"/>
     <use x="206.542969" xlink:href="#DejaVuSans-111"/>
     <use x="267.724609" xlink:href="#DejaVuSans-100"/>
     <use x="331.201172" xlink:href="#DejaVuSans-101"/>
     <use x="392.724609" xlink:href="#DejaVuSans-115"/>
     <use x="444.824219" xlink:href="#DejaVuSans-32"/>
     <use x="476.611328" xlink:href="#DejaVuSans-76"/>
     <use x="532.308594" xlink:href="#DejaVuSans-101"/>
     <use x="593.832031" xlink:href="#DejaVuSans-110"/>
     <use x="657.210938" xlink:href="#DejaVuSans-103"/>
     <use x="720.6875" xlink:href="#DejaVuSans-116"/>
     <use x="759.896484" xlink:href="#DejaVuSans-104"/>
    </g>
   </g>
  </g>
 </g>
 <defs>
  <clipPath id="p9becaab967">
   <rect height="221.76" width="202.909091" x="72" y="34.56"/>
  </clipPath>
  <clipPath id="p4a1fc36025">
   <rect height="221.76" width="202.909091" x="315.490909" y="34.56"/>
  </clipPath>
 </defs>
</svg>
