<?xml version="1.0" encoding="utf-8" standalone="no"?>
<!DOCTYPE svg PUBLIC "-//W3C//DTD SVG 1.1//EN"
  "http://www.w3.org/Graphics/SVG/1.1/DTD/svg11.dtd">
<!-- Created with matplotlib (https://matplotlib.org/) -->
<svg height="216pt" version="1.1" viewBox="0 0 432 216" width="432pt" xmlns="http://www.w3.org/2000/svg" xmlns:xlink="http://www.w3.org/1999/xlink">
 <defs>
  <style type="text/css">
*{stroke-linecap:butt;stroke-linejoin:round;}
  </style>
 </defs>
 <g id="figure_1">
  <g id="patch_1">
   <path d="M 0 216 
L 432 216 
L 432 0 
L 0 0 
z
" style="fill:#ffffff;"/>
  </g>
  <g id="axes_1">
   <g id="patch_2">
    <path d="M 54 192.24 
L 206.181818 192.24 
L 206.181818 25.92 
L 54 25.92 
z
" style="fill:#ffffff;"/>
   </g>
   <g id="matplotlib.axis_1">
    <g id="xtick_1">
     <g id="line2d_1">
      <defs>
       <path d="M 0 0 
L 0 3.5 
" id="mb65b2e20f0" style="stroke:#000000;stroke-width:0.8;"/>
      </defs>
      <g>
       <use style="stroke:#000000;stroke-width:0.8;" x="60.684839" xlink:href="#mb65b2e20f0" y="192.24"/>
      </g>
     </g>
     <g id="text_1">
      <!-- 0 -->
      <defs>
       <path d="M 31.78125 66.40625 
Q 24.171875 66.40625 20.328125 58.90625 
Q 16.5 51.421875 16.5 36.375 
Q 16.5 21.390625 20.328125 13.890625 
Q 24.171875 6.390625 31.78125 6.390625 
Q 39.453125 6.390625 43.28125 13.890625 
Q 47.125 21.390625 47.125 36.375 
Q 47.125 51.421875 43.28125 58.90625 
Q 39.453125 66.40625 31.78125 66.40625 
z
M 31.78125 74.21875 
Q 44.046875 74.21875 50.515625 64.515625 
Q 56.984375 54.828125 56.984375 36.375 
Q 56.984375 17.96875 50.515625 8.265625 
Q 44.046875 -1.421875 31.78125 -1.421875 
Q 19.53125 -1.421875 13.0625 8.265625 
Q 6.59375 17.96875 6.59375 36.375 
Q 6.59375 54.828125 13.0625 64.515625 
Q 19.53125 74.21875 31.78125 74.21875 
z
" id="DejaVuSans-48"/>
      </defs>
      <g transform="translate(57.503589 206.838437)scale(0.1 -0.1)">
       <use xlink:href="#DejaVuSans-48"/>
      </g>
     </g>
    </g>
    <g id="xtick_2">
     <g id="line2d_2">
      <g>
       <use style="stroke:#000000;stroke-width:0.8;" x="107.188069" xlink:href="#mb65b2e20f0" y="192.24"/>
      </g>
     </g>
     <g id="text_2">
      <!-- 200 -->
      <defs>
       <path d="M 19.1875 8.296875 
L 53.609375 8.296875 
L 53.609375 0 
L 7.328125 0 
L 7.328125 8.296875 
Q 12.9375 14.109375 22.625 23.890625 
Q 32.328125 33.6875 34.8125 36.53125 
Q 39.546875 41.84375 41.421875 45.53125 
Q 43.3125 49.21875 43.3125 52.78125 
Q 43.3125 58.59375 39.234375 62.25 
Q 35.15625 65.921875 28.609375 65.921875 
Q 23.96875 65.921875 18.8125 64.3125 
Q 13.671875 62.703125 7.8125 59.421875 
L 7.8125 69.390625 
Q 13.765625 71.78125 18.9375 73 
Q 24.125 74.21875 28.421875 74.21875 
Q 39.75 74.21875 46.484375 68.546875 
Q 53.21875 62.890625 53.21875 53.421875 
Q 53.21875 48.921875 51.53125 44.890625 
Q 49.859375 40.875 45.40625 35.40625 
Q 44.1875 33.984375 37.640625 27.21875 
Q 31.109375 20.453125 19.1875 8.296875 
z
" id="DejaVuSans-50"/>
      </defs>
      <g transform="translate(97.644319 206.838437)scale(0.1 -0.1)">
       <use xlink:href="#DejaVuSans-50"/>
       <use x="63.623047" xlink:href="#DejaVuSans-48"/>
       <use x="127.246094" xlink:href="#DejaVuSans-48"/>
      </g>
     </g>
    </g>
    <g id="xtick_3">
     <g id="line2d_3">
      <g>
       <use style="stroke:#000000;stroke-width:0.8;" x="153.691298" xlink:href="#mb65b2e20f0" y="192.24"/>
      </g>
     </g>
     <g id="text_3">
      <!-- 400 -->
      <defs>
       <path d="M 37.796875 64.3125 
L 12.890625 25.390625 
L 37.796875 25.390625 
z
M 35.203125 72.90625 
L 47.609375 72.90625 
L 47.609375 25.390625 
L 58.015625 25.390625 
L 58.015625 17.1875 
L 47.609375 17.1875 
L 47.609375 0 
L 37.796875 0 
L 37.796875 17.1875 
L 4.890625 17.1875 
L 4.890625 26.703125 
z
" id="DejaVuSans-52"/>
      </defs>
      <g transform="translate(144.147548 206.838437)scale(0.1 -0.1)">
       <use xlink:href="#DejaVuSans-52"/>
       <use x="63.623047" xlink:href="#DejaVuSans-48"/>
       <use x="127.246094" xlink:href="#DejaVuSans-48"/>
      </g>
     </g>
    </g>
    <g id="xtick_4">
     <g id="line2d_4">
      <g>
       <use style="stroke:#000000;stroke-width:0.8;" x="200.194527" xlink:href="#mb65b2e20f0" y="192.24"/>
      </g>
     </g>
     <g id="text_4">
      <!-- 600 -->
      <defs>
       <path d="M 33.015625 40.375 
Q 26.375 40.375 22.484375 35.828125 
Q 18.609375 31.296875 18.609375 23.390625 
Q 18.609375 15.53125 22.484375 10.953125 
Q 26.375 6.390625 33.015625 6.390625 
Q 39.65625 6.390625 43.53125 10.953125 
Q 47.40625 15.53125 47.40625 23.390625 
Q 47.40625 31.296875 43.53125 35.828125 
Q 39.65625 40.375 33.015625 40.375 
z
M 52.59375 71.296875 
L 52.59375 62.3125 
Q 48.875 64.0625 45.09375 64.984375 
Q 41.3125 65.921875 37.59375 65.921875 
Q 27.828125 65.921875 22.671875 59.328125 
Q 17.53125 52.734375 16.796875 39.40625 
Q 19.671875 43.65625 24.015625 45.921875 
Q 28.375 48.1875 33.59375 48.1875 
Q 44.578125 48.1875 50.953125 41.515625 
Q 57.328125 34.859375 57.328125 23.390625 
Q 57.328125 12.15625 50.6875 5.359375 
Q 44.046875 -1.421875 33.015625 -1.421875 
Q 20.359375 -1.421875 13.671875 8.265625 
Q 6.984375 17.96875 6.984375 36.375 
Q 6.984375 53.65625 15.1875 63.9375 
Q 23.390625 74.21875 37.203125 74.21875 
Q 40.921875 74.21875 44.703125 73.484375 
Q 48.484375 72.75 52.59375 71.296875 
z
" id="DejaVuSans-54"/>
      </defs>
      <g transform="translate(190.650777 206.838437)scale(0.1 -0.1)">
       <use xlink:href="#DejaVuSans-54"/>
       <use x="63.623047" xlink:href="#DejaVuSans-48"/>
       <use x="127.246094" xlink:href="#DejaVuSans-48"/>
      </g>
     </g>
    </g>
    <g id="text_5">
     <!-- N° Episode -->
     <defs>
      <path d="M 9.8125 72.90625 
L 23.09375 72.90625 
L 55.421875 11.921875 
L 55.421875 72.90625 
L 64.984375 72.90625 
L 64.984375 0 
L 51.703125 0 
L 19.390625 60.984375 
L 19.390625 0 
L 9.8125 0 
z
" id="DejaVuSans-78"/>
      <path d="M 25 67.921875 
Q 21.09375 67.921875 18.40625 65.203125 
Q 15.71875 62.5 15.71875 58.59375 
Q 15.71875 54.734375 18.40625 52.078125 
Q 21.09375 49.421875 25 49.421875 
Q 28.90625 49.421875 31.59375 52.078125 
Q 34.28125 54.734375 34.28125 58.59375 
Q 34.28125 62.453125 31.5625 65.1875 
Q 28.859375 67.921875 25 67.921875 
z
M 25 74.21875 
Q 28.125 74.21875 31 73.015625 
Q 33.890625 71.828125 35.984375 69.578125 
Q 38.234375 67.390625 39.359375 64.59375 
Q 40.484375 61.8125 40.484375 58.59375 
Q 40.484375 52.15625 35.96875 47.6875 
Q 31.453125 43.21875 24.90625 43.21875 
Q 18.3125 43.21875 13.90625 47.609375 
Q 9.515625 52 9.515625 58.59375 
Q 9.515625 65.140625 14 69.671875 
Q 18.5 74.21875 25 74.21875 
z
" id="DejaVuSans-176"/>
      <path id="DejaVuSans-32"/>
      <path d="M 9.8125 72.90625 
L 55.90625 72.90625 
L 55.90625 64.59375 
L 19.671875 64.59375 
L 19.671875 43.015625 
L 54.390625 43.015625 
L 54.390625 34.71875 
L 19.671875 34.71875 
L 19.671875 8.296875 
L 56.78125 8.296875 
L 56.78125 0 
L 9.8125 0 
z
" id="DejaVuSans-69"/>
      <path d="M 18.109375 8.203125 
L 18.109375 -20.796875 
L 9.078125 -20.796875 
L 9.078125 54.6875 
L 18.109375 54.6875 
L 18.109375 46.390625 
Q 20.953125 51.265625 25.265625 53.625 
Q 29.59375 56 35.59375 56 
Q 45.5625 56 51.78125 48.09375 
Q 58.015625 40.1875 58.015625 27.296875 
Q 58.015625 14.40625 51.78125 6.484375 
Q 45.5625 -1.421875 35.59375 -1.421875 
Q 29.59375 -1.421875 25.265625 0.953125 
Q 20.953125 3.328125 18.109375 8.203125 
z
M 48.6875 27.296875 
Q 48.6875 37.203125 44.609375 42.84375 
Q 40.53125 48.484375 33.40625 48.484375 
Q 26.265625 48.484375 22.1875 42.84375 
Q 18.109375 37.203125 18.109375 27.296875 
Q 18.109375 17.390625 22.1875 11.75 
Q 26.265625 6.109375 33.40625 6.109375 
Q 40.53125 6.109375 44.609375 11.75 
Q 48.6875 17.390625 48.6875 27.296875 
z
" id="DejaVuSans-112"/>
      <path d="M 9.421875 54.6875 
L 18.40625 54.6875 
L 18.40625 0 
L 9.421875 0 
z
M 9.421875 75.984375 
L 18.40625 75.984375 
L 18.40625 64.59375 
L 9.421875 64.59375 
z
" id="DejaVuSans-105"/>
      <path d="M 44.28125 53.078125 
L 44.28125 44.578125 
Q 40.484375 46.53125 36.375 47.5 
Q 32.28125 48.484375 27.875 48.484375 
Q 21.1875 48.484375 17.84375 46.4375 
Q 14.5 44.390625 14.5 40.28125 
Q 14.5 37.15625 16.890625 35.375 
Q 19.28125 33.59375 26.515625 31.984375 
L 29.59375 31.296875 
Q 39.15625 29.25 43.1875 25.515625 
Q 47.21875 21.78125 47.21875 15.09375 
Q 47.21875 7.46875 41.1875 3.015625 
Q 35.15625 -1.421875 24.609375 -1.421875 
Q 20.21875 -1.421875 15.453125 -0.5625 
Q 10.6875 0.296875 5.421875 2 
L 5.421875 11.28125 
Q 10.40625 8.6875 15.234375 7.390625 
Q 20.0625 6.109375 24.8125 6.109375 
Q 31.15625 6.109375 34.5625 8.28125 
Q 37.984375 10.453125 37.984375 14.40625 
Q 37.984375 18.0625 35.515625 20.015625 
Q 33.0625 21.96875 24.703125 23.78125 
L 21.578125 24.515625 
Q 13.234375 26.265625 9.515625 29.90625 
Q 5.8125 33.546875 5.8125 39.890625 
Q 5.8125 47.609375 11.28125 51.796875 
Q 16.75 56 26.8125 56 
Q 31.78125 56 36.171875 55.265625 
Q 40.578125 54.546875 44.28125 53.078125 
z
" id="DejaVuSans-115"/>
      <path d="M 30.609375 48.390625 
Q 23.390625 48.390625 19.1875 42.75 
Q 14.984375 37.109375 14.984375 27.296875 
Q 14.984375 17.484375 19.15625 11.84375 
Q 23.34375 6.203125 30.609375 6.203125 
Q 37.796875 6.203125 41.984375 11.859375 
Q 46.1875 17.53125 46.1875 27.296875 
Q 46.1875 37.015625 41.984375 42.703125 
Q 37.796875 48.390625 30.609375 48.390625 
z
M 30.609375 56 
Q 42.328125 56 49.015625 48.375 
Q 55.71875 40.765625 55.71875 27.296875 
Q 55.71875 13.875 49.015625 6.21875 
Q 42.328125 -1.421875 30.609375 -1.421875 
Q 18.84375 -1.421875 12.171875 6.21875 
Q 5.515625 13.875 5.515625 27.296875 
Q 5.515625 40.765625 12.171875 48.375 
Q 18.84375 56 30.609375 56 
z
" id="DejaVuSans-111"/>
      <path d="M 45.40625 46.390625 
L 45.40625 75.984375 
L 54.390625 75.984375 
L 54.390625 0 
L 45.40625 0 
L 45.40625 8.203125 
Q 42.578125 3.328125 38.25 0.953125 
Q 33.9375 -1.421875 27.875 -1.421875 
Q 17.96875 -1.421875 11.734375 6.484375 
Q 5.515625 14.40625 5.515625 27.296875 
Q 5.515625 40.1875 11.734375 48.09375 
Q 17.96875 56 27.875 56 
Q 33.9375 56 38.25 53.625 
Q 42.578125 51.265625 45.40625 46.390625 
z
M 14.796875 27.296875 
Q 14.796875 17.390625 18.875 11.75 
Q 22.953125 6.109375 30.078125 6.109375 
Q 37.203125 6.109375 41.296875 11.75 
Q 45.40625 17.390625 45.40625 27.296875 
Q 45.40625 37.203125 41.296875 42.84375 
Q 37.203125 48.484375 30.078125 48.484375 
Q 22.953125 48.484375 18.875 42.84375 
Q 14.796875 37.203125 14.796875 27.296875 
z
" id="DejaVuSans-100"/>
      <path d="M 56.203125 29.59375 
L 56.203125 25.203125 
L 14.890625 25.203125 
Q 15.484375 15.921875 20.484375 11.0625 
Q 25.484375 6.203125 34.421875 6.203125 
Q 39.59375 6.203125 44.453125 7.46875 
Q 49.3125 8.734375 54.109375 11.28125 
L 54.109375 2.78125 
Q 49.265625 0.734375 44.1875 -0.34375 
Q 39.109375 -1.421875 33.890625 -1.421875 
Q 20.796875 -1.421875 13.15625 6.1875 
Q 5.515625 13.8125 5.515625 26.8125 
Q 5.515625 40.234375 12.765625 48.109375 
Q 20.015625 56 32.328125 56 
Q 43.359375 56 49.78125 48.890625 
Q 56.203125 41.796875 56.203125 29.59375 
z
M 47.21875 32.234375 
Q 47.125 39.59375 43.09375 43.984375 
Q 39.0625 48.390625 32.421875 48.390625 
Q 24.90625 48.390625 20.390625 44.140625 
Q 15.875 39.890625 15.1875 32.171875 
z
" id="DejaVuSans-101"/>
     </defs>
     <g transform="translate(102.623722 220.516562)scale(0.1 -0.1)">
      <use xlink:href="#DejaVuSans-78"/>
      <use x="74.804688" xlink:href="#DejaVuSans-176"/>
      <use x="124.804688" xlink:href="#DejaVuSans-32"/>
      <use x="156.591797" xlink:href="#DejaVuSans-69"/>
      <use x="219.775391" xlink:href="#DejaVuSans-112"/>
      <use x="283.251953" xlink:href="#DejaVuSans-105"/>
      <use x="311.035156" xlink:href="#DejaVuSans-115"/>
      <use x="363.134766" xlink:href="#DejaVuSans-111"/>
      <use x="424.316406" xlink:href="#DejaVuSans-100"/>
      <use x="487.792969" xlink:href="#DejaVuSans-101"/>
     </g>
    </g>
   </g>
   <g id="matplotlib.axis_2">
    <g id="ytick_1">
     <g id="line2d_5">
      <defs>
       <path d="M 0 0 
L -3.5 0 
" id="m26d7659d81" style="stroke:#000000;stroke-width:0.8;"/>
      </defs>
      <g>
       <use style="stroke:#000000;stroke-width:0.8;" x="54" xlink:href="#m26d7659d81" y="190.368636"/>
      </g>
     </g>
     <g id="text_6">
      <!-- −220 -->
      <defs>
       <path d="M 10.59375 35.5 
L 73.1875 35.5 
L 73.1875 27.203125 
L 10.59375 27.203125 
z
" id="DejaVuSans-8722"/>
      </defs>
      <g transform="translate(19.532812 194.167855)scale(0.1 -0.1)">
       <use xlink:href="#DejaVuSans-8722"/>
       <use x="83.789062" xlink:href="#DejaVuSans-50"/>
       <use x="147.412109" xlink:href="#DejaVuSans-50"/>
       <use x="211.035156" xlink:href="#DejaVuSans-48"/>
      </g>
     </g>
    </g>
    <g id="ytick_2">
     <g id="line2d_6">
      <g>
       <use style="stroke:#000000;stroke-width:0.8;" x="54" xlink:href="#m26d7659d81" y="161.877264"/>
      </g>
     </g>
     <g id="text_7">
      <!-- −210 -->
      <defs>
       <path d="M 12.40625 8.296875 
L 28.515625 8.296875 
L 28.515625 63.921875 
L 10.984375 60.40625 
L 10.984375 69.390625 
L 28.421875 72.90625 
L 38.28125 72.90625 
L 38.28125 8.296875 
L 54.390625 8.296875 
L 54.390625 0 
L 12.40625 0 
z
" id="DejaVuSans-49"/>
      </defs>
      <g transform="translate(19.532812 165.676483)scale(0.1 -0.1)">
       <use xlink:href="#DejaVuSans-8722"/>
       <use x="83.789062" xlink:href="#DejaVuSans-50"/>
       <use x="147.412109" xlink:href="#DejaVuSans-49"/>
       <use x="211.035156" xlink:href="#DejaVuSans-48"/>
      </g>
     </g>
    </g>
    <g id="ytick_3">
     <g id="line2d_7">
      <g>
       <use style="stroke:#000000;stroke-width:0.8;" x="54" xlink:href="#m26d7659d81" y="133.385893"/>
      </g>
     </g>
     <g id="text_8">
      <!-- −200 -->
      <g transform="translate(19.532812 137.185112)scale(0.1 -0.1)">
       <use xlink:href="#DejaVuSans-8722"/>
       <use x="83.789062" xlink:href="#DejaVuSans-50"/>
       <use x="147.412109" xlink:href="#DejaVuSans-48"/>
       <use x="211.035156" xlink:href="#DejaVuSans-48"/>
      </g>
     </g>
    </g>
    <g id="ytick_4">
     <g id="line2d_8">
      <g>
       <use style="stroke:#000000;stroke-width:0.8;" x="54" xlink:href="#m26d7659d81" y="104.894521"/>
      </g>
     </g>
     <g id="text_9">
      <!-- −190 -->
      <defs>
       <path d="M 10.984375 1.515625 
L 10.984375 10.5 
Q 14.703125 8.734375 18.5 7.8125 
Q 22.3125 6.890625 25.984375 6.890625 
Q 35.75 6.890625 40.890625 13.453125 
Q 46.046875 20.015625 46.78125 33.40625 
Q 43.953125 29.203125 39.59375 26.953125 
Q 35.25 24.703125 29.984375 24.703125 
Q 19.046875 24.703125 12.671875 31.3125 
Q 6.296875 37.9375 6.296875 49.421875 
Q 6.296875 60.640625 12.9375 67.421875 
Q 19.578125 74.21875 30.609375 74.21875 
Q 43.265625 74.21875 49.921875 64.515625 
Q 56.59375 54.828125 56.59375 36.375 
Q 56.59375 19.140625 48.40625 8.859375 
Q 40.234375 -1.421875 26.421875 -1.421875 
Q 22.703125 -1.421875 18.890625 -0.6875 
Q 15.09375 0.046875 10.984375 1.515625 
z
M 30.609375 32.421875 
Q 37.25 32.421875 41.125 36.953125 
Q 45.015625 41.5 45.015625 49.421875 
Q 45.015625 57.28125 41.125 61.84375 
Q 37.25 66.40625 30.609375 66.40625 
Q 23.96875 66.40625 20.09375 61.84375 
Q 16.21875 57.28125 16.21875 49.421875 
Q 16.21875 41.5 20.09375 36.953125 
Q 23.96875 32.421875 30.609375 32.421875 
z
" id="DejaVuSans-57"/>
      </defs>
      <g transform="translate(19.532812 108.69374)scale(0.1 -0.1)">
       <use xlink:href="#DejaVuSans-8722"/>
       <use x="83.789062" xlink:href="#DejaVuSans-49"/>
       <use x="147.412109" xlink:href="#DejaVuSans-57"/>
       <use x="211.035156" xlink:href="#DejaVuSans-48"/>
      </g>
     </g>
    </g>
    <g id="ytick_5">
     <g id="line2d_9">
      <g>
       <use style="stroke:#000000;stroke-width:0.8;" x="54" xlink:href="#m26d7659d81" y="76.403149"/>
      </g>
     </g>
     <g id="text_10">
      <!-- −180 -->
      <defs>
       <path d="M 31.78125 34.625 
Q 24.75 34.625 20.71875 30.859375 
Q 16.703125 27.09375 16.703125 20.515625 
Q 16.703125 13.921875 20.71875 10.15625 
Q 24.75 6.390625 31.78125 6.390625 
Q 38.8125 6.390625 42.859375 10.171875 
Q 46.921875 13.96875 46.921875 20.515625 
Q 46.921875 27.09375 42.890625 30.859375 
Q 38.875 34.625 31.78125 34.625 
z
M 21.921875 38.8125 
Q 15.578125 40.375 12.03125 44.71875 
Q 8.5 49.078125 8.5 55.328125 
Q 8.5 64.0625 14.71875 69.140625 
Q 20.953125 74.21875 31.78125 74.21875 
Q 42.671875 74.21875 48.875 69.140625 
Q 55.078125 64.0625 55.078125 55.328125 
Q 55.078125 49.078125 51.53125 44.71875 
Q 48 40.375 41.703125 38.8125 
Q 48.828125 37.15625 52.796875 32.3125 
Q 56.78125 27.484375 56.78125 20.515625 
Q 56.78125 9.90625 50.3125 4.234375 
Q 43.84375 -1.421875 31.78125 -1.421875 
Q 19.734375 -1.421875 13.25 4.234375 
Q 6.78125 9.90625 6.78125 20.515625 
Q 6.78125 27.484375 10.78125 32.3125 
Q 14.796875 37.15625 21.921875 38.8125 
z
M 18.3125 54.390625 
Q 18.3125 48.734375 21.84375 45.5625 
Q 25.390625 42.390625 31.78125 42.390625 
Q 38.140625 42.390625 41.71875 45.5625 
Q 45.3125 48.734375 45.3125 54.390625 
Q 45.3125 60.0625 41.71875 63.234375 
Q 38.140625 66.40625 31.78125 66.40625 
Q 25.390625 66.40625 21.84375 63.234375 
Q 18.3125 60.0625 18.3125 54.390625 
z
" id="DejaVuSans-56"/>
      </defs>
      <g transform="translate(19.532812 80.202368)scale(0.1 -0.1)">
       <use xlink:href="#DejaVuSans-8722"/>
       <use x="83.789062" xlink:href="#DejaVuSans-49"/>
       <use x="147.412109" xlink:href="#DejaVuSans-56"/>
       <use x="211.035156" xlink:href="#DejaVuSans-48"/>
      </g>
     </g>
    </g>
    <g id="ytick_6">
     <g id="line2d_10">
      <g>
       <use style="stroke:#000000;stroke-width:0.8;" x="54" xlink:href="#m26d7659d81" y="47.911778"/>
      </g>
     </g>
     <g id="text_11">
      <!-- −170 -->
      <defs>
       <path d="M 8.203125 72.90625 
L 55.078125 72.90625 
L 55.078125 68.703125 
L 28.609375 0 
L 18.3125 0 
L 43.21875 64.59375 
L 8.203125 64.59375 
z
" id="DejaVuSans-55"/>
      </defs>
      <g transform="translate(19.532812 51.710997)scale(0.1 -0.1)">
       <use xlink:href="#DejaVuSans-8722"/>
       <use x="83.789062" xlink:href="#DejaVuSans-49"/>
       <use x="147.412109" xlink:href="#DejaVuSans-55"/>
       <use x="211.035156" xlink:href="#DejaVuSans-48"/>
      </g>
     </g>
    </g>
    <g id="text_12">
     <!-- Episode Reward -->
     <defs>
      <path d="M 44.390625 34.1875 
Q 47.5625 33.109375 50.5625 29.59375 
Q 53.5625 26.078125 56.59375 19.921875 
L 66.609375 0 
L 56 0 
L 46.6875 18.703125 
Q 43.0625 26.03125 39.671875 28.421875 
Q 36.28125 30.8125 30.421875 30.8125 
L 19.671875 30.8125 
L 19.671875 0 
L 9.8125 0 
L 9.8125 72.90625 
L 32.078125 72.90625 
Q 44.578125 72.90625 50.734375 67.671875 
Q 56.890625 62.453125 56.890625 51.90625 
Q 56.890625 45.015625 53.6875 40.46875 
Q 50.484375 35.9375 44.390625 34.1875 
z
M 19.671875 64.796875 
L 19.671875 38.921875 
L 32.078125 38.921875 
Q 39.203125 38.921875 42.84375 42.21875 
Q 46.484375 45.515625 46.484375 51.90625 
Q 46.484375 58.296875 42.84375 61.546875 
Q 39.203125 64.796875 32.078125 64.796875 
z
" id="DejaVuSans-82"/>
      <path d="M 4.203125 54.6875 
L 13.1875 54.6875 
L 24.421875 12.015625 
L 35.59375 54.6875 
L 46.1875 54.6875 
L 57.421875 12.015625 
L 68.609375 54.6875 
L 77.59375 54.6875 
L 63.28125 0 
L 52.6875 0 
L 40.921875 44.828125 
L 29.109375 0 
L 18.5 0 
z
" id="DejaVuSans-119"/>
      <path d="M 34.28125 27.484375 
Q 23.390625 27.484375 19.1875 25 
Q 14.984375 22.515625 14.984375 16.5 
Q 14.984375 11.71875 18.140625 8.90625 
Q 21.296875 6.109375 26.703125 6.109375 
Q 34.1875 6.109375 38.703125 11.40625 
Q 43.21875 16.703125 43.21875 25.484375 
L 43.21875 27.484375 
z
M 52.203125 31.203125 
L 52.203125 0 
L 43.21875 0 
L 43.21875 8.296875 
Q 40.140625 3.328125 35.546875 0.953125 
Q 30.953125 -1.421875 24.3125 -1.421875 
Q 15.921875 -1.421875 10.953125 3.296875 
Q 6 8.015625 6 15.921875 
Q 6 25.140625 12.171875 29.828125 
Q 18.359375 34.515625 30.609375 34.515625 
L 43.21875 34.515625 
L 43.21875 35.40625 
Q 43.21875 41.609375 39.140625 45 
Q 35.0625 48.390625 27.6875 48.390625 
Q 23 48.390625 18.546875 47.265625 
Q 14.109375 46.140625 10.015625 43.890625 
L 10.015625 52.203125 
Q 14.9375 54.109375 19.578125 55.046875 
Q 24.21875 56 28.609375 56 
Q 40.484375 56 46.34375 49.84375 
Q 52.203125 43.703125 52.203125 31.203125 
z
" id="DejaVuSans-97"/>
      <path d="M 41.109375 46.296875 
Q 39.59375 47.171875 37.8125 47.578125 
Q 36.03125 48 33.890625 48 
Q 26.265625 48 22.1875 43.046875 
Q 18.109375 38.09375 18.109375 28.8125 
L 18.109375 0 
L 9.078125 0 
L 9.078125 54.6875 
L 18.109375 54.6875 
L 18.109375 46.1875 
Q 20.953125 51.171875 25.484375 53.578125 
Q 30.03125 56 36.53125 56 
Q 37.453125 56 38.578125 55.875 
Q 39.703125 55.765625 41.0625 55.515625 
z
" id="DejaVuSans-114"/>
     </defs>
     <g transform="translate(13.453125 149.23625)rotate(-90)scale(0.1 -0.1)">
      <use xlink:href="#DejaVuSans-69"/>
      <use x="63.183594" xlink:href="#DejaVuSans-112"/>
      <use x="126.660156" xlink:href="#DejaVuSans-105"/>
      <use x="154.443359" xlink:href="#DejaVuSans-115"/>
      <use x="206.542969" xlink:href="#DejaVuSans-111"/>
      <use x="267.724609" xlink:href="#DejaVuSans-100"/>
      <use x="331.201172" xlink:href="#DejaVuSans-101"/>
      <use x="392.724609" xlink:href="#DejaVuSans-32"/>
      <use x="424.511719" xlink:href="#DejaVuSans-82"/>
      <use x="493.931641" xlink:href="#DejaVuSans-101"/>
      <use x="555.455078" xlink:href="#DejaVuSans-119"/>
      <use x="637.242188" xlink:href="#DejaVuSans-97"/>
      <use x="698.521484" xlink:href="#DejaVuSans-114"/>
      <use x="739.619141" xlink:href="#DejaVuSans-100"/>
     </g>
    </g>
   </g>
   <g id="line2d_11">
    <path clip-path="url(#p86a78ae724)" d="M 60.917355 133.385893 
L 63.475033 133.385893 
L 63.707549 101.178521 
L 63.940065 133.385893 
L 64.637614 133.385893 
L 64.87013 107.913201 
L 65.102646 133.385893 
L 65.335162 133.385893 
L 65.567678 120.441191 
L 65.800194 133.385893 
L 66.265227 133.385893 
L 66.497743 112.453886 
L 66.730259 133.385893 
L 66.962775 90.918801 
L 67.195291 119.553427 
L 67.427807 133.385893 
L 67.660324 116.506611 
L 67.89284 133.385893 
L 68.125356 133.385893 
L 68.357872 123.667909 
L 68.590388 133.385893 
L 69.287937 133.385893 
L 69.520453 144.097951 
L 69.752969 133.385893 
L 70.218001 133.385893 
L 70.450517 55.680384 
L 70.683034 133.385893 
L 70.91555 97.620555 
L 71.148066 133.385893 
L 71.380582 106.281321 
L 71.613098 133.385893 
L 71.845614 133.385893 
L 72.07813 116.16549 
L 72.310647 133.385893 
L 72.543163 93.197602 
L 72.775679 133.385893 
L 73.008195 142.220985 
L 73.240711 133.385893 
L 73.473227 133.385893 
L 73.705743 96.141749 
L 73.93826 133.385893 
L 74.403292 133.385893 
L 74.635808 123.941659 
L 74.868324 133.385893 
L 75.10084 133.385893 
L 75.333356 105.955164 
L 75.565873 133.385893 
L 76.263421 133.385893 
L 76.495937 126.693256 
L 76.728453 133.385893 
L 77.658518 133.385893 
L 77.891034 102.544909 
L 78.12355 123.41161 
L 78.356066 133.385893 
L 78.588583 133.385893 
L 78.821099 103.750324 
L 79.053615 133.385893 
L 79.983679 133.385893 
L 80.216196 114.680616 
L 80.448712 133.385893 
L 81.14626 133.385893 
L 81.378776 132.119643 
L 81.611292 133.385893 
L 81.843809 123.921926 
L 82.076325 133.385893 
L 82.308841 133.385893 
L 82.541357 98.492636 
L 83.006389 119.722707 
L 83.238905 110.873435 
L 83.471422 133.385893 
L 83.703938 89.724467 
L 83.936454 133.385893 
L 84.16897 107.73345 
L 84.401486 133.385893 
L 84.634002 97.116203 
L 84.866519 133.385893 
L 85.331551 133.385893 
L 85.564067 111.963012 
L 85.796583 133.385893 
L 86.494132 133.385893 
L 86.726648 113.956534 
L 86.959164 133.385893 
L 87.19168 133.385893 
L 87.424196 127.687797 
L 87.656712 133.385893 
L 88.354261 133.385893 
L 88.586777 108.072 
L 88.819293 133.385893 
L 89.051809 133.385893 
L 89.284325 112.862322 
L 89.516841 133.385893 
L 90.21439 133.385893 
L 90.446906 142.566647 
L 90.679422 133.385893 
L 91.144454 133.385893 
L 91.376971 165.491657 
L 91.609487 133.385893 
L 92.074519 133.385893 
L 92.307035 102.77749 
L 92.539551 133.385893 
L 92.772068 184.68 
L 93.2371 70.242145 
L 93.469616 95.08097 
L 93.702132 133.385893 
L 93.934648 130.458488 
L 94.167164 133.385893 
L 94.864713 133.385893 
L 95.097229 149.530688 
L 95.329745 133.385893 
L 95.562261 106.277696 
L 95.794777 133.385893 
L 96.027294 133.385893 
L 96.25981 107.42784 
L 96.492326 127.506207 
L 96.724842 133.385893 
L 96.957358 133.385893 
L 97.189874 123.05948 
L 97.42239 133.385893 
L 97.654907 133.385893 
L 97.887423 107.954961 
L 98.119939 133.385893 
L 99.050003 133.385893 
L 99.28252 125.602946 
L 99.515036 133.385893 
L 99.747552 133.385893 
L 99.980068 128.952341 
L 100.212584 133.385893 
L 100.677617 133.385893 
L 100.910133 126.533486 
L 101.142649 133.385893 
L 101.375165 105.824211 
L 101.607681 133.385893 
L 102.30523 133.385893 
L 102.537746 147.04689 
L 102.770262 133.385893 
L 103.700326 133.385893 
L 103.932843 120.342457 
L 104.165359 133.385893 
L 104.862907 133.385893 
L 105.095423 132.246383 
L 105.327939 133.385893 
L 105.560456 74.558156 
L 105.792972 133.385893 
L 106.49052 133.385893 
L 106.723036 127.12341 
L 106.955552 114.536734 
L 107.420585 159.627426 
L 107.653101 133.385893 
L 107.885617 133.385893 
L 108.118133 180.482296 
L 108.350649 80.236695 
L 108.583165 133.385893 
L 108.815682 133.385893 
L 109.048198 115.118412 
L 109.280714 133.385893 
L 109.51323 125.27609 
L 109.745746 97.735485 
L 109.978262 98.471825 
L 110.210779 133.385893 
L 110.675811 133.385893 
L 110.908327 126.173395 
L 111.140843 133.385893 
L 111.605875 133.385893 
L 111.838392 112.427499 
L 112.070908 133.385893 
L 112.303424 133.385893 
L 112.53594 127.325546 
L 112.768456 133.385893 
L 113.000972 97.917012 
L 113.233488 133.385893 
L 114.163553 133.385893 
L 114.861101 117.505904 
L 115.326134 149.701753 
L 115.55865 133.385893 
L 117.883811 133.385893 
L 118.116328 113.159882 
L 118.348844 133.385893 
L 118.58136 102.167321 
L 118.813876 114.264189 
L 119.046392 133.385893 
L 119.278908 133.385893 
L 119.511424 128.419406 
L 119.743941 133.385893 
L 120.208973 133.385893 
L 120.441489 89.865637 
L 120.674005 133.385893 
L 121.371554 133.385893 
L 121.60407 122.644562 
L 121.836586 133.385893 
L 122.069102 133.385893 
L 122.301618 105.846453 
L 122.534134 133.385893 
L 124.161747 133.385893 
L 124.394263 128.567548 
L 124.62678 133.385893 
L 124.859296 93.982405 
L 125.091812 133.385893 
L 125.324328 133.385893 
L 125.556844 100.68419 
L 125.78936 133.385893 
L 126.486909 133.385893 
L 126.719425 105.653003 
L 126.951941 133.385893 
L 127.64949 133.385893 
L 127.882006 128.298903 
L 128.114522 133.385893 
L 128.81207 133.385893 
L 129.044586 112.884241 
L 129.277103 133.385893 
L 129.509619 73.030443 
L 129.742135 133.385893 
L 130.207167 133.385893 
L 130.439683 106.046616 
L 130.672199 133.385893 
L 130.904716 101.476923 
L 131.137232 133.385893 
L 131.369748 133.385893 
L 131.602264 120.353895 
L 131.83478 88.958653 
L 132.067296 133.385893 
L 132.299812 105.545166 
L 132.532329 101.058371 
L 132.764845 133.385893 
L 133.694909 133.385893 
L 134.159942 103.559314 
L 134.392458 133.385893 
L 135.090006 133.385893 
L 135.322522 110.589308 
L 135.555039 133.385893 
L 136.020071 133.385893 
L 136.252587 100.447101 
L 136.485103 133.385893 
L 136.717619 133.385893 
L 136.950135 114.14236 
L 137.182652 133.385893 
L 137.415168 133.385893 
L 137.647684 130.749536 
L 137.8802 133.385893 
L 138.577748 133.385893 
L 138.810265 110.04024 
L 139.042781 133.385893 
L 139.740329 133.385893 
L 139.972845 111.072104 
L 140.205361 133.385893 
L 140.90291 133.385893 
L 141.135426 115.285717 
L 141.367942 133.385893 
L 142.065491 133.385893 
L 142.298007 161.355326 
L 142.530523 133.385893 
L 143.228071 133.385893 
L 143.460588 108.904047 
L 143.693104 133.385893 
L 144.158136 133.385893 
L 144.390652 125.152831 
L 144.623168 133.385893 
L 144.855684 133.385893 
L 145.088201 100.250544 
L 145.320717 133.385893 
L 145.553233 115.580002 
L 145.785749 133.385893 
L 146.250781 133.385893 
L 146.483297 113.730651 
L 146.715814 133.385893 
L 147.180846 133.385893 
L 147.413362 107.031553 
L 147.645878 133.385893 
L 147.878394 133.385893 
L 148.11091 104.492649 
L 148.343427 133.385893 
L 148.575943 133.385893 
L 148.808459 123.244211 
L 149.040975 133.385893 
L 149.273491 133.385893 
L 149.506007 106.164443 
L 149.738524 133.385893 
L 150.668588 133.385893 
L 150.901104 119.288457 
L 151.13362 133.385893 
L 151.598653 133.385893 
L 151.831169 113.387064 
L 152.063685 133.385893 
L 152.761233 133.385893 
L 152.99375 126.172898 
L 153.226266 133.385893 
L 154.15633 133.385893 
L 154.388846 127.133236 
L 154.621363 133.385893 
L 155.086395 133.385893 
L 155.318911 131.946613 
L 155.551427 133.385893 
L 155.783943 93.634293 
L 156.016459 133.385893 
L 156.714008 133.385893 
L 156.946524 122.406043 
L 157.17904 133.385893 
L 157.411556 97.734523 
L 157.644073 133.385893 
L 158.109105 133.385893 
L 158.341621 131.04123 
L 158.574137 133.385893 
L 158.806653 133.385893 
L 159.039169 94.396742 
L 159.271686 133.385893 
L 159.504202 98.735021 
L 159.736718 133.385893 
L 160.20175 133.385893 
L 160.434266 102.512279 
L 160.666782 133.385893 
L 161.364331 133.385893 
L 161.596847 130.884929 
L 161.829363 133.385893 
L 162.759428 133.385893 
L 162.991944 124.809617 
L 163.22446 133.385893 
L 163.456976 133.385893 
L 163.689492 99.733686 
L 163.922008 133.385893 
L 165.084589 133.385893 
L 165.317105 130.75195 
L 165.549622 133.385893 
L 165.782138 133.385893 
L 166.014654 33.48 
L 166.24717 133.385893 
L 166.479686 100.564912 
L 166.712202 133.385893 
L 166.944718 133.385893 
L 167.177235 99.453352 
L 167.409751 133.385893 
L 167.642267 105.490523 
L 167.874783 133.385893 
L 168.339815 133.385893 
L 168.572331 122.416264 
L 168.804848 94.73811 
L 169.037364 117.528376 
L 169.26988 128.772762 
L 169.502396 133.385893 
L 169.967428 133.385893 
L 170.199944 137.19946 
L 170.432461 133.385893 
L 170.897493 133.385893 
L 171.130009 108.455122 
L 171.362525 98.553283 
L 171.595041 133.385893 
L 171.827557 96.772529 
L 172.060074 133.385893 
L 172.29259 106.117282 
L 172.525106 133.385893 
L 172.757622 133.385893 
L 172.990138 122.953718 
L 173.222654 133.385893 
L 173.687687 133.385893 
L 173.920203 116.516524 
L 174.152719 133.385893 
L 174.385235 92.190749 
L 174.617751 133.385893 
L 175.082784 133.385893 
L 175.3153 117.385361 
L 175.547816 133.385893 
L 175.780332 133.385893 
L 176.012848 104.667392 
L 176.245364 133.385893 
L 176.710397 133.385893 
L 176.942913 101.39843 
L 177.175429 133.385893 
L 177.407945 125.094166 
L 177.640461 133.385893 
L 177.872977 133.385893 
L 178.105493 96.57613 
L 178.33801 133.385893 
L 178.803042 133.385893 
L 179.035558 110.979412 
L 179.268074 133.385893 
L 179.50059 133.385893 
L 179.733106 103.266448 
L 179.965623 133.385893 
L 180.198139 124.063099 
L 180.430655 133.385893 
L 180.663171 113.762349 
L 180.895687 133.385893 
L 181.128203 113.118756 
L 181.360719 133.385893 
L 181.593236 112.601802 
L 181.825752 133.385893 
L 182.755816 133.385893 
L 182.988333 117.131742 
L 183.220849 133.385893 
L 183.453365 120.240296 
L 183.685881 133.385893 
L 183.918397 133.385893 
L 184.150913 130.844482 
L 184.383429 133.385893 
L 185.080978 133.385893 
L 185.313494 118.184187 
L 185.54601 133.385893 
L 186.011042 133.385893 
L 186.243559 105.040441 
L 186.476075 133.385893 
L 186.708591 55.284409 
L 186.941107 133.385893 
L 187.406139 133.385893 
L 187.638655 108.593611 
L 187.871172 133.385893 
L 188.56872 133.385893 
L 188.801236 112.743613 
L 189.033752 133.385893 
L 189.266268 116.700991 
L 189.498785 133.385893 
L 189.731301 133.385893 
L 189.963817 115.222556 
L 190.196333 133.385893 
L 190.428849 94.800847 
L 190.661365 133.385893 
L 191.358914 133.385893 
L 191.59143 105.37118 
L 191.823946 133.385893 
L 192.056462 90.330121 
L 192.288978 133.385893 
L 193.219043 133.385893 
L 193.451559 118.016952 
L 193.684075 133.385893 
L 193.916591 99.373379 
L 194.149108 133.385893 
L 194.381624 133.385893 
L 194.61414 115.757382 
L 194.846656 106.927292 
L 195.079172 133.385893 
L 196.474269 133.385893 
L 196.706785 105.545972 
L 196.939301 133.385893 
L 197.404334 133.385893 
L 197.63685 107.554409 
L 197.869366 133.385893 
L 198.799431 133.385893 
L 199.031947 116.739909 
L 199.264463 133.385893 
L 199.264463 133.385893 
" style="fill:none;stroke:#1f77b4;stroke-linecap:square;stroke-width:1.5;"/>
   </g>
   <g id="patch_3">
    <path d="M 54 192.24 
L 54 25.92 
" style="fill:none;stroke:#000000;stroke-linecap:square;stroke-linejoin:miter;stroke-width:0.8;"/>
   </g>
   <g id="patch_4">
    <path d="M 206.181818 192.24 
L 206.181818 25.92 
" style="fill:none;stroke:#000000;stroke-linecap:square;stroke-linejoin:miter;stroke-width:0.8;"/>
   </g>
   <g id="patch_5">
    <path d="M 54 192.24 
L 206.181818 192.24 
" style="fill:none;stroke:#000000;stroke-linecap:square;stroke-linejoin:miter;stroke-width:0.8;"/>
   </g>
   <g id="patch_6">
    <path d="M 54 25.92 
L 206.181818 25.92 
" style="fill:none;stroke:#000000;stroke-linecap:square;stroke-linejoin:miter;stroke-width:0.8;"/>
   </g>
   <g id="text_13">
    <!-- Episodes Total Reward -->
    <defs>
     <path d="M -0.296875 72.90625 
L 61.375 72.90625 
L 61.375 64.59375 
L 35.5 64.59375 
L 35.5 0 
L 25.59375 0 
L 25.59375 64.59375 
L -0.296875 64.59375 
z
" id="DejaVuSans-84"/>
     <path d="M 18.3125 70.21875 
L 18.3125 54.6875 
L 36.8125 54.6875 
L 36.8125 47.703125 
L 18.3125 47.703125 
L 18.3125 18.015625 
Q 18.3125 11.328125 20.140625 9.421875 
Q 21.96875 7.515625 27.59375 7.515625 
L 36.8125 7.515625 
L 36.8125 0 
L 27.59375 0 
Q 17.1875 0 13.234375 3.875 
Q 9.28125 7.765625 9.28125 18.015625 
L 9.28125 47.703125 
L 2.6875 47.703125 
L 2.6875 54.6875 
L 9.28125 54.6875 
L 9.28125 70.21875 
z
" id="DejaVuSans-116"/>
     <path d="M 9.421875 75.984375 
L 18.40625 75.984375 
L 18.40625 0 
L 9.421875 0 
z
" id="DejaVuSans-108"/>
    </defs>
    <g transform="translate(61.854972 19.92)scale(0.12 -0.12)">
     <use xlink:href="#DejaVuSans-69"/>
     <use x="63.183594" xlink:href="#DejaVuSans-112"/>
     <use x="126.660156" xlink:href="#DejaVuSans-105"/>
     <use x="154.443359" xlink:href="#DejaVuSans-115"/>
     <use x="206.542969" xlink:href="#DejaVuSans-111"/>
     <use x="267.724609" xlink:href="#DejaVuSans-100"/>
     <use x="331.201172" xlink:href="#DejaVuSans-101"/>
     <use x="392.724609" xlink:href="#DejaVuSans-115"/>
     <use x="444.824219" xlink:href="#DejaVuSans-32"/>
     <use x="476.611328" xlink:href="#DejaVuSans-84"/>
     <use x="537.429688" xlink:href="#DejaVuSans-111"/>
     <use x="598.611328" xlink:href="#DejaVuSans-116"/>
     <use x="637.820312" xlink:href="#DejaVuSans-97"/>
     <use x="699.099609" xlink:href="#DejaVuSans-108"/>
     <use x="726.882812" xlink:href="#DejaVuSans-32"/>
     <use x="758.669922" xlink:href="#DejaVuSans-82"/>
     <use x="828.089844" xlink:href="#DejaVuSans-101"/>
     <use x="889.613281" xlink:href="#DejaVuSans-119"/>
     <use x="971.400391" xlink:href="#DejaVuSans-97"/>
     <use x="1032.679688" xlink:href="#DejaVuSans-114"/>
     <use x="1073.777344" xlink:href="#DejaVuSans-100"/>
    </g>
   </g>
  </g>
  <g id="axes_2">
   <g id="patch_7">
    <path d="M 236.618182 192.24 
L 388.8 192.24 
L 388.8 25.92 
L 236.618182 25.92 
z
" style="fill:#ffffff;"/>
   </g>
   <g id="matplotlib.axis_3">
    <g id="xtick_5">
     <g id="line2d_12">
      <g>
       <use style="stroke:#000000;stroke-width:0.8;" x="243.303021" xlink:href="#mb65b2e20f0" y="192.24"/>
      </g>
     </g>
     <g id="text_14">
      <!-- 0 -->
      <g transform="translate(240.121771 206.838437)scale(0.1 -0.1)">
       <use xlink:href="#DejaVuSans-48"/>
      </g>
     </g>
    </g>
    <g id="xtick_6">
     <g id="line2d_13">
      <g>
       <use style="stroke:#000000;stroke-width:0.8;" x="289.80625" xlink:href="#mb65b2e20f0" y="192.24"/>
      </g>
     </g>
     <g id="text_15">
      <!-- 200 -->
      <g transform="translate(280.2625 206.838437)scale(0.1 -0.1)">
       <use xlink:href="#DejaVuSans-50"/>
       <use x="63.623047" xlink:href="#DejaVuSans-48"/>
       <use x="127.246094" xlink:href="#DejaVuSans-48"/>
      </g>
     </g>
    </g>
    <g id="xtick_7">
     <g id="line2d_14">
      <g>
       <use style="stroke:#000000;stroke-width:0.8;" x="336.30948" xlink:href="#mb65b2e20f0" y="192.24"/>
      </g>
     </g>
     <g id="text_16">
      <!-- 400 -->
      <g transform="translate(326.76573 206.838437)scale(0.1 -0.1)">
       <use xlink:href="#DejaVuSans-52"/>
       <use x="63.623047" xlink:href="#DejaVuSans-48"/>
       <use x="127.246094" xlink:href="#DejaVuSans-48"/>
      </g>
     </g>
    </g>
    <g id="xtick_8">
     <g id="line2d_15">
      <g>
       <use style="stroke:#000000;stroke-width:0.8;" x="382.812709" xlink:href="#mb65b2e20f0" y="192.24"/>
      </g>
     </g>
     <g id="text_17">
      <!-- 600 -->
      <g transform="translate(373.268959 206.838437)scale(0.1 -0.1)">
       <use xlink:href="#DejaVuSans-54"/>
       <use x="63.623047" xlink:href="#DejaVuSans-48"/>
       <use x="127.246094" xlink:href="#DejaVuSans-48"/>
      </g>
     </g>
    </g>
    <g id="text_18">
     <!-- N° Episode -->
     <g transform="translate(285.241903 220.516562)scale(0.1 -0.1)">
      <use xlink:href="#DejaVuSans-78"/>
      <use x="74.804688" xlink:href="#DejaVuSans-176"/>
      <use x="124.804688" xlink:href="#DejaVuSans-32"/>
      <use x="156.591797" xlink:href="#DejaVuSans-69"/>
      <use x="219.775391" xlink:href="#DejaVuSans-112"/>
      <use x="283.251953" xlink:href="#DejaVuSans-105"/>
      <use x="311.035156" xlink:href="#DejaVuSans-115"/>
      <use x="363.134766" xlink:href="#DejaVuSans-111"/>
      <use x="424.316406" xlink:href="#DejaVuSans-100"/>
      <use x="487.792969" xlink:href="#DejaVuSans-101"/>
     </g>
    </g>
   </g>
   <g id="matplotlib.axis_4">
    <g id="ytick_7">
     <g id="line2d_16">
      <g>
       <use style="stroke:#000000;stroke-width:0.8;" x="236.618182" xlink:href="#m26d7659d81" y="187.006154"/>
      </g>
     </g>
     <g id="text_19">
      <!-- 0 -->
      <g transform="translate(223.255682 190.805373)scale(0.1 -0.1)">
       <use xlink:href="#DejaVuSans-48"/>
      </g>
     </g>
    </g>
    <g id="ytick_8">
     <g id="line2d_17">
      <g>
       <use style="stroke:#000000;stroke-width:0.8;" x="236.618182" xlink:href="#m26d7659d81" y="163.744615"/>
      </g>
     </g>
     <g id="text_20">
      <!-- 10 -->
      <g transform="translate(216.893182 167.543834)scale(0.1 -0.1)">
       <use xlink:href="#DejaVuSans-49"/>
       <use x="63.623047" xlink:href="#DejaVuSans-48"/>
      </g>
     </g>
    </g>
    <g id="ytick_9">
     <g id="line2d_18">
      <g>
       <use style="stroke:#000000;stroke-width:0.8;" x="236.618182" xlink:href="#m26d7659d81" y="140.483077"/>
      </g>
     </g>
     <g id="text_21">
      <!-- 20 -->
      <g transform="translate(216.893182 144.282296)scale(0.1 -0.1)">
       <use xlink:href="#DejaVuSans-50"/>
       <use x="63.623047" xlink:href="#DejaVuSans-48"/>
      </g>
     </g>
    </g>
    <g id="ytick_10">
     <g id="line2d_19">
      <g>
       <use style="stroke:#000000;stroke-width:0.8;" x="236.618182" xlink:href="#m26d7659d81" y="117.221538"/>
      </g>
     </g>
     <g id="text_22">
      <!-- 30 -->
      <defs>
       <path d="M 40.578125 39.3125 
Q 47.65625 37.796875 51.625 33 
Q 55.609375 28.21875 55.609375 21.1875 
Q 55.609375 10.40625 48.1875 4.484375 
Q 40.765625 -1.421875 27.09375 -1.421875 
Q 22.515625 -1.421875 17.65625 -0.515625 
Q 12.796875 0.390625 7.625 2.203125 
L 7.625 11.71875 
Q 11.71875 9.328125 16.59375 8.109375 
Q 21.484375 6.890625 26.8125 6.890625 
Q 36.078125 6.890625 40.9375 10.546875 
Q 45.796875 14.203125 45.796875 21.1875 
Q 45.796875 27.640625 41.28125 31.265625 
Q 36.765625 34.90625 28.71875 34.90625 
L 20.21875 34.90625 
L 20.21875 43.015625 
L 29.109375 43.015625 
Q 36.375 43.015625 40.234375 45.921875 
Q 44.09375 48.828125 44.09375 54.296875 
Q 44.09375 59.90625 40.109375 62.90625 
Q 36.140625 65.921875 28.71875 65.921875 
Q 24.65625 65.921875 20.015625 65.03125 
Q 15.375 64.15625 9.8125 62.3125 
L 9.8125 71.09375 
Q 15.4375 72.65625 20.34375 73.4375 
Q 25.25 74.21875 29.59375 74.21875 
Q 40.828125 74.21875 47.359375 69.109375 
Q 53.90625 64.015625 53.90625 55.328125 
Q 53.90625 49.265625 50.4375 45.09375 
Q 46.96875 40.921875 40.578125 39.3125 
z
" id="DejaVuSans-51"/>
      </defs>
      <g transform="translate(216.893182 121.020757)scale(0.1 -0.1)">
       <use xlink:href="#DejaVuSans-51"/>
       <use x="63.623047" xlink:href="#DejaVuSans-48"/>
      </g>
     </g>
    </g>
    <g id="ytick_11">
     <g id="line2d_20">
      <g>
       <use style="stroke:#000000;stroke-width:0.8;" x="236.618182" xlink:href="#m26d7659d81" y="93.96"/>
      </g>
     </g>
     <g id="text_23">
      <!-- 40 -->
      <g transform="translate(216.893182 97.759219)scale(0.1 -0.1)">
       <use xlink:href="#DejaVuSans-52"/>
       <use x="63.623047" xlink:href="#DejaVuSans-48"/>
      </g>
     </g>
    </g>
    <g id="ytick_12">
     <g id="line2d_21">
      <g>
       <use style="stroke:#000000;stroke-width:0.8;" x="236.618182" xlink:href="#m26d7659d81" y="70.698462"/>
      </g>
     </g>
     <g id="text_24">
      <!-- 50 -->
      <defs>
       <path d="M 10.796875 72.90625 
L 49.515625 72.90625 
L 49.515625 64.59375 
L 19.828125 64.59375 
L 19.828125 46.734375 
Q 21.96875 47.46875 24.109375 47.828125 
Q 26.265625 48.1875 28.421875 48.1875 
Q 40.625 48.1875 47.75 41.5 
Q 54.890625 34.8125 54.890625 23.390625 
Q 54.890625 11.625 47.5625 5.09375 
Q 40.234375 -1.421875 26.90625 -1.421875 
Q 22.3125 -1.421875 17.546875 -0.640625 
Q 12.796875 0.140625 7.71875 1.703125 
L 7.71875 11.625 
Q 12.109375 9.234375 16.796875 8.0625 
Q 21.484375 6.890625 26.703125 6.890625 
Q 35.15625 6.890625 40.078125 11.328125 
Q 45.015625 15.765625 45.015625 23.390625 
Q 45.015625 31 40.078125 35.4375 
Q 35.15625 39.890625 26.703125 39.890625 
Q 22.75 39.890625 18.8125 39.015625 
Q 14.890625 38.140625 10.796875 36.28125 
z
" id="DejaVuSans-53"/>
      </defs>
      <g transform="translate(216.893182 74.49768)scale(0.1 -0.1)">
       <use xlink:href="#DejaVuSans-53"/>
       <use x="63.623047" xlink:href="#DejaVuSans-48"/>
      </g>
     </g>
    </g>
    <g id="ytick_13">
     <g id="line2d_22">
      <g>
       <use style="stroke:#000000;stroke-width:0.8;" x="236.618182" xlink:href="#m26d7659d81" y="47.436923"/>
      </g>
     </g>
     <g id="text_25">
      <!-- 60 -->
      <g transform="translate(216.893182 51.236142)scale(0.1 -0.1)">
       <use xlink:href="#DejaVuSans-54"/>
       <use x="63.623047" xlink:href="#DejaVuSans-48"/>
      </g>
     </g>
    </g>
    <g id="text_26">
     <!-- Episode Length -->
     <defs>
      <path d="M 9.8125 72.90625 
L 19.671875 72.90625 
L 19.671875 8.296875 
L 55.171875 8.296875 
L 55.171875 0 
L 9.8125 0 
z
" id="DejaVuSans-76"/>
      <path d="M 54.890625 33.015625 
L 54.890625 0 
L 45.90625 0 
L 45.90625 32.71875 
Q 45.90625 40.484375 42.875 44.328125 
Q 39.84375 48.1875 33.796875 48.1875 
Q 26.515625 48.1875 22.3125 43.546875 
Q 18.109375 38.921875 18.109375 30.90625 
L 18.109375 0 
L 9.078125 0 
L 9.078125 54.6875 
L 18.109375 54.6875 
L 18.109375 46.1875 
Q 21.34375 51.125 25.703125 53.5625 
Q 30.078125 56 35.796875 56 
Q 45.21875 56 50.046875 50.171875 
Q 54.890625 44.34375 54.890625 33.015625 
z
" id="DejaVuSans-110"/>
      <path d="M 45.40625 27.984375 
Q 45.40625 37.75 41.375 43.109375 
Q 37.359375 48.484375 30.078125 48.484375 
Q 22.859375 48.484375 18.828125 43.109375 
Q 14.796875 37.75 14.796875 27.984375 
Q 14.796875 18.265625 18.828125 12.890625 
Q 22.859375 7.515625 30.078125 7.515625 
Q 37.359375 7.515625 41.375 12.890625 
Q 45.40625 18.265625 45.40625 27.984375 
z
M 54.390625 6.78125 
Q 54.390625 -7.171875 48.1875 -13.984375 
Q 42 -20.796875 29.203125 -20.796875 
Q 24.46875 -20.796875 20.265625 -20.09375 
Q 16.0625 -19.390625 12.109375 -17.921875 
L 12.109375 -9.1875 
Q 16.0625 -11.328125 19.921875 -12.34375 
Q 23.78125 -13.375 27.78125 -13.375 
Q 36.625 -13.375 41.015625 -8.765625 
Q 45.40625 -4.15625 45.40625 5.171875 
L 45.40625 9.625 
Q 42.625 4.78125 38.28125 2.390625 
Q 33.9375 0 27.875 0 
Q 17.828125 0 11.671875 7.65625 
Q 5.515625 15.328125 5.515625 27.984375 
Q 5.515625 40.671875 11.671875 48.328125 
Q 17.828125 56 27.875 56 
Q 33.9375 56 38.28125 53.609375 
Q 42.625 51.21875 45.40625 46.390625 
L 45.40625 54.6875 
L 54.390625 54.6875 
z
" id="DejaVuSans-103"/>
      <path d="M 54.890625 33.015625 
L 54.890625 0 
L 45.90625 0 
L 45.90625 32.71875 
Q 45.90625 40.484375 42.875 44.328125 
Q 39.84375 48.1875 33.796875 48.1875 
Q 26.515625 48.1875 22.3125 43.546875 
Q 18.109375 38.921875 18.109375 30.90625 
L 18.109375 0 
L 9.078125 0 
L 9.078125 75.984375 
L 18.109375 75.984375 
L 18.109375 46.1875 
Q 21.34375 51.125 25.703125 53.5625 
Q 30.078125 56 35.796875 56 
Q 45.21875 56 50.046875 50.171875 
Q 54.890625 44.34375 54.890625 33.015625 
z
" id="DejaVuSans-104"/>
     </defs>
     <g transform="translate(210.813494 147.640156)rotate(-90)scale(0.1 -0.1)">
      <use xlink:href="#DejaVuSans-69"/>
      <use x="63.183594" xlink:href="#DejaVuSans-112"/>
      <use x="126.660156" xlink:href="#DejaVuSans-105"/>
      <use x="154.443359" xlink:href="#DejaVuSans-115"/>
      <use x="206.542969" xlink:href="#DejaVuSans-111"/>
      <use x="267.724609" xlink:href="#DejaVuSans-100"/>
      <use x="331.201172" xlink:href="#DejaVuSans-101"/>
      <use x="392.724609" xlink:href="#DejaVuSans-32"/>
      <use x="424.511719" xlink:href="#DejaVuSans-76"/>
      <use x="480.208984" xlink:href="#DejaVuSans-101"/>
      <use x="541.732422" xlink:href="#DejaVuSans-110"/>
      <use x="605.111328" xlink:href="#DejaVuSans-103"/>
      <use x="668.587891" xlink:href="#DejaVuSans-116"/>
      <use x="707.796875" xlink:href="#DejaVuSans-104"/>
     </g>
    </g>
   </g>
   <g id="line2d_23">
    <path clip-path="url(#p0495b74f2e)" d="M 243.535537 184.68 
L 246.093215 184.68 
L 246.325731 166.070769 
L 246.558247 184.68 
L 247.255796 184.68 
L 247.488312 173.049231 
L 247.720828 184.68 
L 247.953344 184.68 
L 248.18586 168.396923 
L 248.418376 184.68 
L 248.883409 184.68 
L 249.115925 170.723077 
L 249.348441 184.68 
L 249.580957 119.547692 
L 249.813473 163.744615 
L 250.045989 184.68 
L 250.278505 166.070769 
L 250.511022 184.68 
L 250.743538 184.68 
L 250.976054 168.396923 
L 251.20857 184.68 
L 251.906118 184.68 
L 252.138635 149.787692 
L 252.371151 184.68 
L 252.836183 184.68 
L 253.068699 124.2 
L 253.301215 184.68 
L 253.533732 166.070769 
L 253.766248 184.68 
L 253.998764 166.070769 
L 254.23128 184.68 
L 254.463796 184.68 
L 254.696312 168.396923 
L 254.928828 184.68 
L 255.161345 166.070769 
L 255.393861 184.68 
L 255.626377 142.809231 
L 255.858893 184.68 
L 256.091409 184.68 
L 256.323925 168.396923 
L 256.556441 184.68 
L 257.021474 184.68 
L 257.25399 170.723077 
L 257.486506 184.68 
L 257.719022 184.68 
L 257.951538 145.135385 
L 258.184054 184.68 
L 258.881603 184.68 
L 259.114119 173.049231 
L 259.346635 184.68 
L 260.2767 184.68 
L 260.509216 135.830769 
L 260.741732 180.027692 
L 260.974248 184.68 
L 261.206764 184.68 
L 261.439281 168.396923 
L 261.671797 184.68 
L 262.601861 184.68 
L 262.834377 175.375385 
L 263.066894 184.68 
L 263.764442 184.68 
L 263.996958 173.049231 
L 264.229474 184.68 
L 264.46199 166.070769 
L 264.694507 184.68 
L 264.927023 184.68 
L 265.159539 168.396923 
L 265.392055 163.744615 
L 265.857087 163.744615 
L 266.089603 184.68 
L 266.32212 166.070769 
L 266.554636 184.68 
L 266.787152 166.070769 
L 267.019668 184.68 
L 267.252184 166.070769 
L 267.4847 184.68 
L 267.949733 184.68 
L 268.182249 170.723077 
L 268.414765 184.68 
L 269.112313 184.68 
L 269.34483 173.049231 
L 269.577346 184.68 
L 269.809862 184.68 
L 270.042378 168.396923 
L 270.274894 184.68 
L 270.972443 184.68 
L 271.204959 173.049231 
L 271.437475 184.68 
L 271.669991 184.68 
L 271.902507 168.396923 
L 272.135023 184.68 
L 272.832572 184.68 
L 273.065088 159.092308 
L 273.297604 184.68 
L 273.762636 184.68 
L 273.995152 161.418462 
L 274.227669 184.68 
L 274.692701 184.68 
L 274.925217 33.48 
L 275.157733 184.68 
L 275.390249 119.547692 
L 275.622765 184.68 
L 275.855282 75.350769 
L 276.087798 161.418462 
L 276.320314 184.68 
L 276.55283 166.070769 
L 276.785346 184.68 
L 277.482895 184.68 
L 277.715411 149.787692 
L 277.947927 184.68 
L 278.180443 166.070769 
L 278.412959 184.68 
L 278.645475 184.68 
L 278.877992 168.396923 
L 279.110508 163.744615 
L 279.343024 184.68 
L 279.57554 184.68 
L 279.808056 168.396923 
L 280.040572 184.68 
L 280.273088 184.68 
L 280.505605 168.396923 
L 280.738121 184.68 
L 281.668185 184.68 
L 281.900701 161.418462 
L 282.133218 184.68 
L 282.365734 184.68 
L 282.59825 182.353846 
L 282.830766 184.68 
L 283.295798 184.68 
L 283.528314 170.723077 
L 283.760831 184.68 
L 283.993347 166.070769 
L 284.225863 184.68 
L 284.923411 184.68 
L 285.155927 149.787692 
L 285.388444 184.68 
L 286.318508 184.68 
L 286.551024 175.375385 
L 286.783541 184.68 
L 287.481089 184.68 
L 287.713605 173.049231 
L 287.946121 184.68 
L 288.178637 135.830769 
L 288.411154 184.68 
L 289.108702 184.68 
L 289.341218 180.027692 
L 289.573734 145.135385 
L 289.80625 184.68 
L 290.038767 168.396923 
L 290.271283 184.68 
L 290.503799 184.68 
L 290.736315 163.744615 
L 290.968831 114.895385 
L 291.201347 184.68 
L 291.433863 184.68 
L 291.66638 168.396923 
L 291.898896 184.68 
L 292.131412 166.070769 
L 292.363928 163.744615 
L 292.596444 154.44 
L 292.82896 184.68 
L 293.293993 184.68 
L 293.526509 180.027692 
L 293.759025 184.68 
L 294.224057 184.68 
L 294.456573 170.723077 
L 294.68909 184.68 
L 294.921606 184.68 
L 295.154122 168.396923 
L 295.386638 184.68 
L 295.619154 166.070769 
L 295.85167 184.68 
L 296.781735 184.68 
L 297.246767 163.744615 
L 297.479283 163.744615 
L 297.711799 184.68 
L 297.944316 133.504615 
L 298.176832 184.68 
L 300.501993 184.68 
L 300.734509 175.375385 
L 300.967025 184.68 
L 301.199542 166.070769 
L 301.432058 163.744615 
L 301.664574 184.68 
L 301.89709 184.68 
L 302.129606 168.396923 
L 302.362122 184.68 
L 302.827155 184.68 
L 303.059671 147.461538 
L 303.292187 184.68 
L 303.989735 184.68 
L 304.222252 173.049231 
L 304.454768 184.68 
L 304.687284 184.68 
L 304.9198 168.396923 
L 305.152316 184.68 
L 306.779929 184.68 
L 307.012445 66.046154 
L 307.244961 184.68 
L 307.477478 163.744615 
L 307.709994 184.68 
L 307.94251 184.68 
L 308.175026 168.396923 
L 308.407542 184.68 
L 309.105091 184.68 
L 309.337607 149.787692 
L 309.570123 184.68 
L 310.267671 184.68 
L 310.500188 173.049231 
L 310.732704 184.68 
L 311.430252 184.68 
L 311.662768 173.049231 
L 311.895284 184.68 
L 312.127801 142.809231 
L 312.360317 184.68 
L 312.825349 184.68 
L 313.057865 170.723077 
L 313.290381 184.68 
L 313.522897 166.070769 
L 313.755414 184.68 
L 313.98793 184.68 
L 314.220446 168.396923 
L 314.452962 163.744615 
L 314.685478 184.68 
L 314.917994 166.070769 
L 315.15051 163.744615 
L 315.383027 184.68 
L 316.313091 184.68 
L 316.778123 163.744615 
L 317.01064 184.68 
L 317.708188 184.68 
L 317.940704 173.049231 
L 318.17322 184.68 
L 318.638253 184.68 
L 318.870769 170.723077 
L 319.103285 184.68 
L 319.335801 184.68 
L 319.568317 168.396923 
L 319.800833 184.68 
L 320.03335 184.68 
L 320.265866 168.396923 
L 320.498382 184.68 
L 321.19593 184.68 
L 321.428446 173.049231 
L 321.660963 184.68 
L 322.358511 184.68 
L 322.591027 173.049231 
L 322.823543 184.68 
L 323.521092 184.68 
L 323.753608 173.049231 
L 323.986124 184.68 
L 324.683672 184.68 
L 324.916189 149.787692 
L 325.148705 184.68 
L 325.846253 184.68 
L 326.078769 173.049231 
L 326.311286 184.68 
L 326.776318 184.68 
L 327.008834 170.723077 
L 327.24135 184.68 
L 327.473866 184.68 
L 327.706382 168.396923 
L 327.938899 184.68 
L 328.171415 166.070769 
L 328.403931 184.68 
L 328.868963 184.68 
L 329.101479 170.723077 
L 329.333995 184.68 
L 329.799028 184.68 
L 330.031544 170.723077 
L 330.26406 184.68 
L 330.496576 184.68 
L 330.729092 168.396923 
L 330.961608 184.68 
L 331.194125 184.68 
L 331.426641 168.396923 
L 331.659157 184.68 
L 331.891673 184.68 
L 332.124189 168.396923 
L 332.356705 184.68 
L 333.28677 184.68 
L 333.519286 175.375385 
L 333.751802 184.68 
L 334.216835 184.68 
L 334.449351 170.723077 
L 334.681867 184.68 
L 335.379415 184.68 
L 335.611931 173.049231 
L 335.844448 184.68 
L 336.774512 184.68 
L 337.007028 175.375385 
L 337.239544 184.68 
L 337.704577 184.68 
L 337.937093 170.723077 
L 338.169609 184.68 
L 338.402125 166.070769 
L 338.634641 184.68 
L 339.33219 184.68 
L 339.564706 173.049231 
L 339.797222 184.68 
L 340.029738 166.070769 
L 340.262254 184.68 
L 340.727287 184.68 
L 340.959803 170.723077 
L 341.192319 184.68 
L 341.424835 184.68 
L 341.657351 168.396923 
L 341.889867 184.68 
L 342.122383 166.070769 
L 342.3549 184.68 
L 342.819932 184.68 
L 343.052448 170.723077 
L 343.284964 184.68 
L 343.982513 184.68 
L 344.215029 173.049231 
L 344.447545 184.68 
L 345.37761 184.68 
L 345.610126 175.375385 
L 345.842642 184.68 
L 346.075158 184.68 
L 346.307674 168.396923 
L 346.54019 184.68 
L 347.702771 184.68 
L 347.935287 103.264615 
L 348.167803 184.68 
L 348.400319 184.68 
L 348.632836 140.483077 
L 348.865352 184.68 
L 349.097868 142.809231 
L 349.330384 184.68 
L 349.5629 184.68 
L 349.795416 168.396923 
L 350.027932 184.68 
L 350.260449 166.070769 
L 350.492965 184.68 
L 350.957997 184.68 
L 351.190513 170.723077 
L 351.423029 163.744615 
L 351.888062 163.744615 
L 352.120578 184.68 
L 352.58561 184.68 
L 352.818126 147.461538 
L 353.050642 184.68 
L 353.515675 184.68 
L 353.748191 170.723077 
L 353.980707 163.744615 
L 354.213223 184.68 
L 354.445739 166.070769 
L 354.678255 184.68 
L 354.910772 166.070769 
L 355.143288 184.68 
L 355.375804 184.68 
L 355.60832 168.396923 
L 355.840836 184.68 
L 356.305868 184.68 
L 356.538385 170.723077 
L 356.770901 184.68 
L 357.003417 166.070769 
L 357.235933 184.68 
L 357.700965 184.68 
L 357.933481 170.723077 
L 358.165998 184.68 
L 358.398514 184.68 
L 358.63103 168.396923 
L 358.863546 184.68 
L 359.328578 184.68 
L 359.561095 170.723077 
L 359.793611 184.68 
L 360.026127 166.070769 
L 360.258643 184.68 
L 360.491159 184.68 
L 360.723675 168.396923 
L 360.956191 184.68 
L 361.421224 184.68 
L 361.65374 170.723077 
L 361.886256 184.68 
L 362.118772 184.68 
L 362.351288 168.396923 
L 362.583804 184.68 
L 362.816321 142.809231 
L 363.048837 184.68 
L 363.281353 166.070769 
L 363.513869 184.68 
L 363.746385 166.070769 
L 363.978901 184.68 
L 364.211417 166.070769 
L 364.443934 184.68 
L 365.373998 184.68 
L 365.606514 175.375385 
L 365.83903 184.68 
L 366.071547 166.070769 
L 366.304063 184.68 
L 366.536579 184.68 
L 366.769095 168.396923 
L 367.001611 184.68 
L 367.69916 184.68 
L 367.931676 173.049231 
L 368.164192 184.68 
L 368.629224 184.68 
L 368.86174 170.723077 
L 369.094257 184.68 
L 369.326773 142.809231 
L 369.559289 184.68 
L 370.024321 184.68 
L 370.256837 170.723077 
L 370.489353 184.68 
L 371.186902 184.68 
L 371.419418 173.049231 
L 371.651934 184.68 
L 371.88445 166.070769 
L 372.116966 184.68 
L 372.349483 184.68 
L 372.581999 168.396923 
L 372.814515 184.68 
L 373.047031 166.070769 
L 373.279547 184.68 
L 373.977096 184.68 
L 374.209612 173.049231 
L 374.442128 184.68 
L 374.674644 166.070769 
L 374.90716 184.68 
L 375.837225 184.68 
L 376.069741 175.375385 
L 376.302257 184.68 
L 376.534773 166.070769 
L 376.767289 184.68 
L 376.999806 184.68 
L 377.232322 166.070769 
L 377.464838 166.070769 
L 377.697354 184.68 
L 379.092451 184.68 
L 379.324967 161.418462 
L 379.557483 184.68 
L 380.022515 184.68 
L 380.255032 170.723077 
L 380.487548 184.68 
L 381.417612 184.68 
L 381.650128 175.375385 
L 381.882645 184.68 
L 381.882645 184.68 
" style="fill:none;stroke:#1f77b4;stroke-linecap:square;stroke-width:1.5;"/>
   </g>
   <g id="patch_8">
    <path d="M 236.618182 192.24 
L 236.618182 25.92 
" style="fill:none;stroke:#000000;stroke-linecap:square;stroke-linejoin:miter;stroke-width:0.8;"/>
   </g>
   <g id="patch_9">
    <path d="M 388.8 192.24 
L 388.8 25.92 
" style="fill:none;stroke:#000000;stroke-linecap:square;stroke-linejoin:miter;stroke-width:0.8;"/>
   </g>
   <g id="patch_10">
    <path d="M 236.618182 192.24 
L 388.8 192.24 
" style="fill:none;stroke:#000000;stroke-linecap:square;stroke-linejoin:miter;stroke-width:0.8;"/>
   </g>
   <g id="patch_11">
    <path d="M 236.618182 25.92 
L 388.8 25.92 
" style="fill:none;stroke:#000000;stroke-linecap:square;stroke-linejoin:miter;stroke-width:0.8;"/>
   </g>
   <g id="text_27">
    <!-- Episodes Length -->
    <g transform="translate(263.311278 19.92)scale(0.12 -0.12)">
     <use xlink:href="#DejaVuSans-69"/>
     <use x="63.183594" xlink:href="#DejaVuSans-112"/>
     <use x="126.660156" xlink:href="#DejaVuSans-105"/>
     <use x="154.443359" xlink:href="#DejaVuSans-115"/>
     <use x="206.542969" xlink:href="#DejaVuSans-111"/>
     <use x="267.724609" xlink:href="#DejaVuSans-100"/>
     <use x="331.201172" xlink:href="#DejaVuSans-101"/>
     <use x="392.724609" xlink:href="#DejaVuSans-115"/>
     <use x="444.824219" xlink:href="#DejaVuSans-32"/>
     <use x="476.611328" xlink:href="#DejaVuSans-76"/>
     <use x="532.308594" xlink:href="#DejaVuSans-101"/>
     <use x="593.832031" xlink:href="#DejaVuSans-110"/>
     <use x="657.210938" xlink:href="#DejaVuSans-103"/>
     <use x="720.6875" xlink:href="#DejaVuSans-116"/>
     <use x="759.896484" xlink:href="#DejaVuSans-104"/>
    </g>
   </g>
  </g>
 </g>
 <defs>
  <clipPath id="p86a78ae724">
   <rect height="166.32" width="152.181818" x="54" y="25.92"/>
  </clipPath>
  <clipPath id="p0495b74f2e">
   <rect height="166.32" width="152.181818" x="236.618182" y="25.92"/>
  </clipPath>
 </defs>
</svg>
